<?xml version="1.0" encoding="UTF-8"?>
<!--Generator: Apple Native CoreSVG 175.5-->
<!DOCTYPE svg
PUBLIC "-//W3C//DTD SVG 1.1//EN"
       "http://www.w3.org/Graphics/SVG/1.1/DTD/svg11.dtd">
<svg version="1.1" xmlns="http://www.w3.org/2000/svg" xmlns:xlink="http://www.w3.org/1999/xlink" width="3300" height="2200">
 <!--glyph: "uni100306.medium", point size: 100.0, font version: "18.0d12e2", template writer version: "101"-->
 <g id="Notes">
  <rect height="2200" id="artboard" style="fill:white;opacity:1" width="3300" x="0" y="0"/>
  <line style="fill:none;stroke:black;opacity:1;stroke-width:0.5;" x1="263" x2="3036" y1="292" y2="292"/>
  <text style="stroke:none;fill:black;font-family:sans-serif;font-size:13;font-weight:bold;" transform="matrix(1 0 0 1 263 322)">Weight/Scale Variations</text>
  <text style="stroke:none;fill:black;font-family:sans-serif;font-size:13;text-anchor:middle;" transform="matrix(1 0 0 1 559.711 322)">Ultralight</text>
  <text style="stroke:none;fill:black;font-family:sans-serif;font-size:13;text-anchor:middle;" transform="matrix(1 0 0 1 856.422 322)">Thin</text>
  <text style="stroke:none;fill:black;font-family:sans-serif;font-size:13;text-anchor:middle;" transform="matrix(1 0 0 1 1153.13 322)">Light</text>
  <text style="stroke:none;fill:black;font-family:sans-serif;font-size:13;text-anchor:middle;" transform="matrix(1 0 0 1 1449.84 322)">Regular</text>
  <text style="stroke:none;fill:black;font-family:sans-serif;font-size:13;text-anchor:middle;" transform="matrix(1 0 0 1 1746.56 322)">Medium</text>
  <text style="stroke:none;fill:black;font-family:sans-serif;font-size:13;text-anchor:middle;" transform="matrix(1 0 0 1 2043.27 322)">Semibold</text>
  <text style="stroke:none;fill:black;font-family:sans-serif;font-size:13;text-anchor:middle;" transform="matrix(1 0 0 1 2339.98 322)">Bold</text>
  <text style="stroke:none;fill:black;font-family:sans-serif;font-size:13;text-anchor:middle;" transform="matrix(1 0 0 1 2636.69 322)">Heavy</text>
  <text style="stroke:none;fill:black;font-family:sans-serif;font-size:13;text-anchor:middle;" transform="matrix(1 0 0 1 2933.4 322)">Black</text>
  <line style="fill:none;stroke:black;opacity:1;stroke-width:0.5;" x1="263" x2="3036" y1="1903" y2="1903"/>
  <g transform="matrix(1 0 0 1 263 1933)">
   <path d="M9.24805 0.830078C13.5547 0.830078 17.1387-2.74414 17.1387-7.05078C17.1387-11.3574 13.5449-14.9316 9.23828-14.9316C4.94141-14.9316 1.36719-11.3574 1.36719-7.05078C1.36719-2.74414 4.95117 0.830078 9.24805 0.830078ZM9.24805-0.654297C5.70312-0.654297 2.87109-3.49609 2.87109-7.05078C2.87109-10.6055 5.69336-13.4473 9.23828-13.4473C12.793-13.4473 15.6445-10.6055 15.6445-7.05078C15.6445-3.49609 12.8027-0.654297 9.24805-0.654297ZM5.6543-7.05078C5.6543-6.62109 5.95703-6.32812 6.40625-6.32812L8.50586-6.32812L8.50586-4.20898C8.50586-3.76953 8.79883-3.4668 9.22852-3.4668C9.67773-3.4668 9.9707-3.76953 9.9707-4.20898L9.9707-6.32812L12.0898-6.32812C12.5293-6.32812 12.832-6.62109 12.832-7.05078C12.832-7.49023 12.5293-7.79297 12.0898-7.79297L9.9707-7.79297L9.9707-9.90234C9.9707-10.3516 9.67773-10.6543 9.22852-10.6543C8.79883-10.6543 8.50586-10.3516 8.50586-9.90234L8.50586-7.79297L6.40625-7.79297C5.95703-7.79297 5.6543-7.49023 5.6543-7.05078Z"/>
  </g>
  <g transform="matrix(1 0 0 1 281.867 1933)">
   <path d="M11.709 2.91016C17.1582 2.91016 21.6699-1.61133 21.6699-7.05078C21.6699-12.5 17.1484-17.0117 11.6992-17.0117C6.25977-17.0117 1.74805-12.5 1.74805-7.05078C1.74805-1.61133 6.26953 2.91016 11.709 2.91016ZM11.709 1.25C7.09961 1.25 3.41797-2.44141 3.41797-7.05078C3.41797-11.6602 7.08984-15.3516 11.6992-15.3516C16.3086-15.3516 20.0098-11.6602 20.0098-7.05078C20.0098-2.44141 16.3184 1.25 11.709 1.25ZM7.17773-7.05078C7.17773-6.57227 7.50977-6.25 8.00781-6.25L10.8789-6.25L10.8789-3.36914C10.8789-2.88086 11.2109-2.53906 11.6895-2.53906C12.1777-2.53906 12.5195-2.87109 12.5195-3.36914L12.5195-6.25L15.4004-6.25C15.8887-6.25 16.2305-6.57227 16.2305-7.05078C16.2305-7.53906 15.8887-7.88086 15.4004-7.88086L12.5195-7.88086L12.5195-10.752C12.5195-11.25 12.1777-11.5918 11.6895-11.5918C11.2109-11.5918 10.8789-11.25 10.8789-10.752L10.8789-7.88086L8.00781-7.88086C7.50977-7.88086 7.17773-7.53906 7.17773-7.05078Z"/>
  </g>
  <g transform="matrix(1 0 0 1 305.646 1933)">
   <path d="M14.9707 5.66406C21.9336 5.66406 27.6953-0.0976562 27.6953-7.05078C27.6953-14.0137 21.9238-19.7754 14.9609-19.7754C8.00781-19.7754 2.25586-14.0137 2.25586-7.05078C2.25586-0.0976562 8.01758 5.66406 14.9707 5.66406ZM14.9707 3.84766C8.93555 3.84766 4.08203-1.01562 4.08203-7.05078C4.08203-13.0957 8.92578-17.9492 14.9609-17.9492C21.0059-17.9492 25.8691-13.0957 25.8691-7.05078C25.8691-1.01562 21.0156 3.84766 14.9707 3.84766ZM9.19922-7.05078C9.19922-6.5332 9.57031-6.17188 10.1172-6.17188L14.0625-6.17188L14.0625-2.2168C14.0625-1.67969 14.4336-1.29883 14.9512-1.29883C15.4883-1.29883 15.8594-1.66992 15.8594-2.2168L15.8594-6.17188L19.8145-6.17188C20.3516-6.17188 20.7324-6.5332 20.7324-7.05078C20.7324-7.59766 20.3613-7.96875 19.8145-7.96875L15.8594-7.96875L15.8594-11.9141C15.8594-12.4609 15.4883-12.8418 14.9512-12.8418C14.4336-12.8418 14.0625-12.4609 14.0625-11.9141L14.0625-7.96875L10.1172-7.96875C9.57031-7.96875 9.19922-7.59766 9.19922-7.05078Z"/>
  </g>
  <text style="stroke:none;fill:black;font-family:sans-serif;font-size:13;font-weight:bold;" transform="matrix(1 0 0 1 263 1953)">Design Variations</text>
  <text style="stroke:none;fill:black;font-family:sans-serif;font-size:13;" transform="matrix(1 0 0 1 263 1971)">Symbols are supported in up to nine weights and three scales.</text>
  <text style="stroke:none;fill:black;font-family:sans-serif;font-size:13;" transform="matrix(1 0 0 1 263 1989)">For optimal layout with text and other symbols, vertically align</text>
  <text style="stroke:none;fill:black;font-family:sans-serif;font-size:13;" transform="matrix(1 0 0 1 263 2007)">symbols with the adjacent text.</text>
  <line style="fill:none;stroke:#00AEEF;stroke-width:0.5;opacity:1.0;" x1="776" x2="776" y1="1919" y2="1933"/>
  <g transform="matrix(1 0 0 1 776 1933)">
   <path d="M3.31055 0.15625C3.82812 0.15625 4.08203-0.0390625 4.26758-0.585938L5.52734-4.0332L11.2891-4.0332L12.5488-0.585938C12.7344-0.0390625 12.9883 0.15625 13.4961 0.15625C14.0137 0.15625 14.3457-0.15625 14.3457-0.644531C14.3457-0.810547 14.3164-0.966797 14.2383-1.17188L9.6582-13.3691C9.43359-13.9648 9.0332-14.2676 8.4082-14.2676C7.80273-14.2676 7.39258-13.9746 7.17773-13.3789L2.59766-1.16211C2.51953-0.957031 2.49023-0.800781 2.49023-0.634766C2.49023-0.146484 2.80273 0.15625 3.31055 0.15625ZM6.00586-5.51758L8.37891-12.0898L8.42773-12.0898L10.8008-5.51758Z"/>
  </g>
  <line style="fill:none;stroke:#00AEEF;stroke-width:0.5;opacity:1.0;" x1="793.197" x2="793.197" y1="1919" y2="1933"/>
  <text style="stroke:none;fill:black;font-family:sans-serif;font-size:13;font-weight:bold;" transform="matrix(1 0 0 1 776 1953)">Margins</text>
  <text style="stroke:none;fill:black;font-family:sans-serif;font-size:13;" transform="matrix(1 0 0 1 776 1971)">Leading and trailing margins on the left and right side of each symbol</text>
  <text style="stroke:none;fill:black;font-family:sans-serif;font-size:13;" transform="matrix(1 0 0 1 776 1989)">can be adjusted by modifying the x-location of the margin guidelines.</text>
  <text style="stroke:none;fill:black;font-family:sans-serif;font-size:13;" transform="matrix(1 0 0 1 776 2007)">Modifications are automatically applied proportionally to all</text>
  <text style="stroke:none;fill:black;font-family:sans-serif;font-size:13;" transform="matrix(1 0 0 1 776 2025)">scales and weights.</text>
  <g transform="matrix(1 0 0 1 1289 1933)">
   <path d="M2.8418 1.86523L4.54102 3.57422C5.40039 4.44336 6.38672 4.38477 7.31445 3.35938L18.0078-8.42773L17.041-9.4043L6.42578 2.27539C6.07422 2.67578 5.74219 2.77344 5.27344 2.30469L4.10156 1.14258C3.63281 0.683594 3.74023 0.341797 4.14062-0.0195312L15.6152-10.8203L14.6387-11.7871L3.04688-0.898438C2.06055 0.0195312 1.98242 0.996094 2.8418 1.86523ZM9.25781-16.3281C8.83789-15.918 8.80859-15.3418 9.04297-14.9512C9.27734-14.5898 9.73633-14.3555 10.3809-14.5215C11.8457-14.8633 13.3691-14.9219 14.7949-13.9844L14.209-12.5293C13.8672-11.6992 14.043-11.1133 14.5801-10.5664L16.875-8.25195C17.3633-7.76367 17.7734-7.74414 18.3398-7.8418L19.4043-8.03711L20.0684-7.36328L20.0293-6.80664C19.9902-6.30859 20.1172-5.92773 20.6055-5.44922L21.3672-4.70703C21.8457-4.22852 22.4609-4.19922 22.9297-4.66797L25.8398-7.58789C26.3086-8.05664 26.2891-8.65234 25.8105-9.13086L25.0391-9.89258C24.5605-10.3711 24.1895-10.5273 23.7109-10.4883L23.1348-10.4395L22.4902-11.0742L22.7344-12.1973C22.8613-12.7637 22.7051-13.2031 22.1191-13.7891L19.9219-15.9766C16.582-19.2969 12.1484-19.2188 9.25781-16.3281ZM10.752-15.957C13.1836-17.7344 16.4746-17.4316 18.7012-15.2051L21.1328-12.793C21.3672-12.5586 21.4062-12.373 21.3379-12.0312L21.0156-10.5469L22.5195-9.0625L23.5059-9.12109C23.7598-9.13086 23.8379-9.11133 24.0332-8.91602L24.6094-8.33984L22.168-5.89844L21.5918-6.47461C21.3965-6.66992 21.3672-6.74805 21.377-7.01172L21.4453-7.98828L19.9512-9.47266L18.4277-9.21875C18.1055-9.15039 17.959-9.17969 17.7148-9.41406L15.7129-11.416C15.459-11.6504 15.4297-11.8164 15.5859-12.1875L16.4648-14.2773C14.9023-15.7324 12.8711-16.3574 10.8398-15.7617C10.6836-15.7227 10.625-15.8496 10.752-15.957Z"/>
  </g>
  <text style="stroke:none;fill:black;font-family:sans-serif;font-size:13;font-weight:bold;" transform="matrix(1 0 0 1 1289 1953)">Exporting</text>
  <text style="stroke:none;fill:black;font-family:sans-serif;font-size:13;" transform="matrix(1 0 0 1 1289 1971)">Symbols should be outlined when exporting to ensure the</text>
  <text style="stroke:none;fill:black;font-family:sans-serif;font-size:13;" transform="matrix(1 0 0 1 1289 1989)">design is preserved when submitting to Xcode.</text>
  <text id="template-version" style="stroke:none;fill:black;font-family:sans-serif;font-size:13;text-anchor:end;" transform="matrix(1 0 0 1 3036 1933)">Template v.2.0</text>
  <text style="stroke:none;fill:black;font-family:sans-serif;font-size:13;text-anchor:end;" transform="matrix(1 0 0 1 3036 1951)">Requires Xcode 12 or greater</text>
  <text id="descriptive-name" style="stroke:none;fill:black;font-family:sans-serif;font-size:13;text-anchor:end;" transform="matrix(1 0 0 1 3036 1969)">Generated from slider.horizontal.3</text>
  <text style="stroke:none;fill:black;font-family:sans-serif;font-size:13;text-anchor:end;" transform="matrix(1 0 0 1 3036 1987)">Typeset at 100 points</text>
  <text style="stroke:none;fill:black;font-family:sans-serif;font-size:13;" transform="matrix(1 0 0 1 263 726)">Small</text>
  <text style="stroke:none;fill:black;font-family:sans-serif;font-size:13;" transform="matrix(1 0 0 1 263 1156)">Medium</text>
  <text style="stroke:none;fill:black;font-family:sans-serif;font-size:13;" transform="matrix(1 0 0 1 263 1586)">Large</text>
 </g>
 <g id="Guides">
  <g id="H-reference" style="fill:#27AAE1;stroke:none;" transform="matrix(1 0 0 1 339 696)">
   <path d="M0.993654 0L3.63775 0L29.3281-67.1323L30.0303-67.1323L30.0303-70.459L28.1226-70.459ZM11.6885-24.4799L46.9815-24.4799L46.2315-26.7285L12.4385-26.7285ZM55.1196 0L57.7637 0L30.6382-70.459L29.4326-70.459L29.4326-67.1323Z"/>
  </g>
  <line id="Baseline-S" style="fill:none;stroke:#27AAE1;opacity:1;stroke-width:0.5;" x1="263" x2="3036" y1="696" y2="696"/>
  <line id="Capline-S" style="fill:none;stroke:#27AAE1;opacity:1;stroke-width:0.5;" x1="263" x2="3036" y1="625.541" y2="625.541"/>
  <g id="H-reference" style="fill:#27AAE1;stroke:none;" transform="matrix(1 0 0 1 339 1126)">
   <path d="M0.993654 0L3.63775 0L29.3281-67.1323L30.0303-67.1323L30.0303-70.459L28.1226-70.459ZM11.6885-24.4799L46.9815-24.4799L46.2315-26.7285L12.4385-26.7285ZM55.1196 0L57.7637 0L30.6382-70.459L29.4326-70.459L29.4326-67.1323Z"/>
  </g>
  <line id="Baseline-M" style="fill:none;stroke:#27AAE1;opacity:1;stroke-width:0.5;" x1="263" x2="3036" y1="1126" y2="1126"/>
  <line id="Capline-M" style="fill:none;stroke:#27AAE1;opacity:1;stroke-width:0.5;" x1="263" x2="3036" y1="1055.54" y2="1055.54"/>
  <g id="H-reference" style="fill:#27AAE1;stroke:none;" transform="matrix(1 0 0 1 339 1556)">
   <path d="M0.993654 0L3.63775 0L29.3281-67.1323L30.0303-67.1323L30.0303-70.459L28.1226-70.459ZM11.6885-24.4799L46.9815-24.4799L46.2315-26.7285L12.4385-26.7285ZM55.1196 0L57.7637 0L30.6382-70.459L29.4326-70.459L29.4326-67.1323Z"/>
  </g>
  <line id="Baseline-L" style="fill:none;stroke:#27AAE1;opacity:1;stroke-width:0.5;" x1="263" x2="3036" y1="1556" y2="1556"/>
  <line id="Capline-L" style="fill:none;stroke:#27AAE1;opacity:1;stroke-width:0.5;" x1="263" x2="3036" y1="1485.54" y2="1485.54"/>
  <line id="left-margin" style="fill:none;stroke:#00AEEF;stroke-width:0.5;opacity:1.0;" x1="1388.21" x2="1388.21" y1="1030.79" y2="1150.12"/>
  <line id="right-margin" style="fill:none;stroke:#00AEEF;stroke-width:0.5;opacity:1.0;" x1="1511.48" x2="1511.48" y1="1030.79" y2="1150.12"/>
 </g>
 <g id="Symbols">
  <g id="Black-L" transform="matrix(1 0 0 1 2847.25 1556)">
   <path d="M112.121 25.2178C123.054 25.2178 131.977 16.2958 131.977 5.36126C131.977-5.55123 123.113-14.4745 112.121-14.4745C101.188-14.4745 92.2643-5.55123 92.2643 5.36126C92.2643 16.2958 101.188 25.2178 112.121 25.2178ZM112.121 14.2316C107.213 14.2316 103.251 10.2679 103.251 5.36006C103.251 0.335384 107.213-3.51025 112.121-3.51025C117.146-3.51025 120.991 0.335384 120.991 5.36006C120.991 10.2679 117.146 14.2316 112.121 14.2316ZM99.068-3.75435L24.9064-3.75435C19.9721-3.75435 16.084 0.485362 16.084 5.36006C16.084 10.0804 20.0305 14.4745 24.9064 14.4745L99.068 14.4745ZM147.451-3.75435L125.132-3.75435L125.132 14.4745L147.451 14.4745C152.322 14.4745 156.211 10.1972 156.211 5.36006C156.211 0.368549 152.38-3.75435 147.451-3.75435ZM60.9086-16.4961C71.7251-16.4961 80.7651-25.4181 80.7651-36.3526C80.7651-47.2651 71.8419-56.1883 60.9086-56.1883C49.9741-56.1883 41.052-47.2651 41.052-36.3526C41.052-25.4181 49.9741-16.4961 60.9086-16.4961ZM60.9086-27.4823C56.0007-27.4823 52.0371-31.446 52.0371-36.3538C52.0371-41.3785 56.0007-45.2241 60.9086-45.2241C65.9332-45.2241 69.7789-41.3785 69.7789-36.3538C69.7789-31.446 65.9332-27.4823 60.9086-27.4823ZM24.8231-45.4682C19.9721-45.4682 16.084-41.2285 16.084-36.3538C16.084-31.6335 20.0305-27.2394 24.8231-27.2394L48.4464-27.2394L48.4464-45.4682ZM147.389-45.4682L73.3373-45.4682L73.3373-27.2394L147.389-27.2394C152.322-27.2394 156.211-31.5167 156.211-36.3538C156.211-41.3453 152.38-45.4682 147.389-45.4682ZM112.121-58.2136C123.054-58.2136 131.977-67.1368 131.977-78.0701C131.977-89.0034 123.054-97.9266 112.121-97.9266C101.188-97.9266 92.2643-89.0034 92.2643-78.0701C92.2643-67.1368 101.188-58.2136 112.121-58.2136ZM112.121-69.1998C107.213-69.1998 103.251-73.1843 103.251-78.0713C103.251-83.1168 107.213-86.9416 112.121-86.9416C117.146-86.9416 120.991-83.1168 120.991-78.0713C120.991-73.1843 117.146-69.1998 112.121-69.1998ZM99.1846-87.1821L24.9064-87.1821C19.9721-87.1821 16.084-82.9424 16.084-78.0677C16.084-73.3682 20.0305-68.9533 24.9064-68.9533L99.1846-68.9533ZM147.451-87.1821L124.848-87.1821L124.848-68.9533L147.451-68.9533C152.322-68.9533 156.211-73.2514 156.211-78.0677C156.211-83.0592 152.38-87.1821 147.451-87.1821Z"/>
  </g>
  <g id="Heavy-L" transform="matrix(1 0 0 1 2552.17 1556)">
   <path d="M109.764 23.5751C120.049 23.5751 128.447 15.1825 128.447 4.89153C128.447-5.36359 120.094-13.7618 109.764-13.7618C99.4785-13.7618 91.0802-5.36359 91.0802 4.89153C91.0802 15.1825 99.4785 23.5751 109.764 23.5751ZM109.764 13.4328C105.023 13.4328 101.223 9.62677 101.223 4.88592C101.223 0.0558224 105.023-3.65532 109.764-3.65532C114.594-3.65532 118.305 0.0558224 118.305 4.88592C118.305 9.62677 114.594 13.4328 109.764 13.4328ZM97.4288-3.19494L23.9417-3.19494C19.549-3.19494 16.084 0.543455 16.084 4.88592C16.084 9.1247 19.5937 12.9668 23.9417 12.9668L97.4288 12.9668ZM145.19-3.19494L122.267-3.19494L122.267 12.9668L145.19 12.9668C149.486 12.9668 152.957 9.21395 152.957 4.88592C152.957 0.45421 149.531-3.19494 145.19-3.19494ZM60.0641-17.3757C70.2602-17.3757 78.7477-25.7684 78.7477-36.0593C78.7477-46.3144 70.3494-54.7126 60.0641-54.7126C49.7732-54.7126 41.3806-46.3144 41.3806-36.0593C41.3806-25.7684 49.7732-17.3757 60.0641-17.3757ZM60.0641-27.518C55.3233-27.518 51.5173-31.324 51.5173-36.0649C51.5173-40.895 55.3233-44.6061 60.0641-44.6061C64.8942-44.6061 68.6054-40.895 68.6054-36.0649C68.6054-31.324 64.8942-27.518 60.0641-27.518ZM23.821-44.1458C19.549-44.1458 16.084-40.4074 16.084-36.0649C16.084-31.8261 19.5937-27.984 23.821-27.984L48.004-27.984L48.004-44.1458ZM145.099-44.1458L71.9272-44.1458L71.9272-27.984L145.099-27.984C149.486-27.984 152.957-31.7369 152.957-36.0649C152.957-40.4966 149.531-44.1458 145.099-44.1458ZM109.764-58.3434C120.049-58.3434 128.447-66.7416 128.447-77.0269C128.447-87.3122 120.049-95.7105 109.764-95.7105C99.4785-95.7105 91.0802-87.3122 91.0802-77.0269C91.0802-66.7416 99.4785-58.3434 109.764-58.3434ZM109.764-68.4857C105.023-68.4857 101.223-72.3219 101.223-77.0326C101.223-81.8928 105.023-85.5738 109.764-85.5738C114.594-85.5738 118.305-81.8928 118.305-77.0326C118.305-72.3219 114.594-68.4857 109.764-68.4857ZM97.5706-85.0966L23.9417-85.0966C19.549-85.0966 16.084-81.3582 16.084-77.0157C16.084-72.8071 19.5937-68.9349 23.9417-68.9349L97.5706-68.9349ZM145.19-85.0966L121.878-85.0966L121.878-68.9349L145.19-68.9349C149.486-68.9349 152.957-72.7179 152.957-77.0157C152.957-81.4474 149.531-85.0966 145.19-85.0966Z"/>
  </g>
  <g id="Bold-L" transform="matrix(1 0 0 1 2257.41 1556)">
   <path d="M107.127 21.6358C116.621 21.6358 124.381 13.8889 124.381 4.38214C124.381-5.0734 116.65-12.8335 107.127-12.8335C97.6335-12.8335 89.8735-5.0734 89.8735 4.38214C89.8735 13.8889 97.6335 21.6358 107.127 21.6358ZM107.127 12.5981C102.549 12.5981 98.9111 8.94703 98.9111 4.36891C98.9111-0.267614 102.549-3.84704 107.127-3.84704C111.764-3.84704 115.343-0.267614 115.343 4.36891C115.343 8.94703 111.764 12.5981 107.127 12.5981ZM95.5791-2.41392L22.7208-2.41392C19.0116-2.41392 16.084 0.702122 16.084 4.36891C16.084 7.98607 19.0408 11.1517 22.7208 11.1517L95.5791 11.1517ZM142.534-2.41392L119.03-2.41392L119.03 11.1517L142.534 11.1517C146.116 11.1517 149.057 8.04448 149.057 4.36891C149.057 0.643715 146.145-2.41392 142.534-2.41392ZM58.9669-18.4668C68.402-18.4668 76.2205-26.2137 76.2205-35.7204C76.2205-45.176 68.4604-52.9361 58.9669-52.9361C49.4601-52.9361 41.7133-45.176 41.7133-35.7204C41.7133-26.2137 49.4601-18.4668 58.9669-18.4668ZM58.9669-27.5045C54.3888-27.5045 50.7377-31.1555 50.7377-35.7337C50.7377-40.3702 54.3888-43.9496 58.9669-43.9496C63.6034-43.9496 67.1829-40.3702 67.1829-35.7337C67.1829-31.1555 63.6034-27.5045 58.9669-27.5045ZM22.5688-42.5165C19.0116-42.5165 16.084-39.4004 16.084-35.7337C16.084-32.1165 19.0408-28.9508 22.5688-28.9508L47.3913-28.9508L47.3913-42.5165ZM142.42-42.5165L70.2052-42.5165L70.2052-28.9508L142.42-28.9508C146.116-28.9508 149.057-32.0581 149.057-35.7337C149.057-39.4589 146.145-42.5165 142.42-42.5165ZM107.127-58.6091C116.621-58.6091 124.381-66.3692 124.381-75.8627C124.381-85.3562 116.621-93.1163 107.127-93.1163C97.6335-93.1163 89.8735-85.3562 89.8735-75.8627C89.8735-66.3692 97.6335-58.6091 107.127-58.6091ZM107.127-67.6467C102.549-67.6467 98.9111-71.3358 98.9111-75.8759C98.9111-80.5504 102.549-84.0919 107.127-84.0919C111.764-84.0919 115.343-80.5504 115.343-75.8759C115.343-71.3358 111.764-67.6467 107.127-67.6467ZM95.7144-82.6191L22.7208-82.6191C19.0116-82.6191 16.084-79.503 16.084-75.8362C16.084-72.257 19.0408-69.0534 22.7208-69.0534L95.7144-69.0534ZM142.534-82.6191L118.578-82.6191L118.578-69.0534L142.534-69.0534C146.116-69.0534 149.057-72.1986 149.057-75.8362C149.057-79.5614 146.145-82.6191 142.534-82.6191Z"/>
  </g>
  <g id="Semibold-L" transform="matrix(1 0 0 1 1962.04 1556)">
   <path d="M105.309 20.2988C114.257 20.2988 121.577 12.9971 121.577 4.03097C121.577-4.87334 114.276-12.1935 105.309-12.1935C96.3617-12.1935 89.0415-4.87334 89.0415 4.03097C89.0415 12.9971 96.3617 20.2988 105.309 20.2988ZM105.309 12.0227C100.843 12.0227 97.3176 8.47841 97.3176 4.01249C97.3176-0.490589 100.843-3.97922 105.309-3.97922C109.812-3.97922 113.301-0.490589 113.301 4.01249C113.301 8.47841 109.812 12.0227 105.309 12.0227ZM94.3038-1.87548L21.8791-1.87548C18.6411-1.87548 16.084 0.811506 16.084 4.01249C16.084 7.20111 18.6596 9.90046 21.8791 9.90046L94.3038 9.90046ZM140.704-1.87548L116.798-1.87548L116.798 9.90046L140.704 9.90046C143.793 9.90046 146.369 7.23826 146.369 4.01249C146.369 0.774359 143.812-1.87548 140.704-1.87548ZM58.2105-19.219C67.121-19.219 74.4783-26.5207 74.4783-35.4868C74.4783-44.3911 67.1582-51.7113 58.2105-51.7113C49.2443-51.7113 41.9427-44.3911 41.9427-35.4868C41.9427-26.5207 49.2443-19.219 58.2105-19.219ZM58.2105-27.4951C53.7446-27.4951 50.2003-31.0394 50.2003-35.5053C50.2003-40.0084 53.7446-43.497 58.2105-43.497C62.7136-43.497 66.2022-40.0084 66.2022-35.5053C66.2022-31.0394 62.7136-27.4951 58.2105-27.4951ZM21.7056-41.3933C18.6411-41.3933 16.084-38.7063 16.084-35.5053C16.084-32.3167 18.6596-29.6173 21.7056-29.6173L46.9689-29.6173L46.9689-41.3933ZM140.573-41.3933L69.0181-41.3933L69.0181-29.6173L140.573-29.6173C143.793-29.6173 146.369-32.2795 146.369-35.5053C146.369-38.7434 143.812-41.3933 140.573-41.3933ZM105.309-58.7922C114.257-58.7922 121.577-66.1124 121.577-75.0601C121.577-84.0077 114.257-91.3279 105.309-91.3279C96.3617-91.3279 89.0415-84.0077 89.0415-75.0601C89.0415-66.1124 96.3617-58.7922 105.309-58.7922ZM105.309-67.0684C100.843-67.0684 97.3176-70.656 97.3176-75.0785C97.3176-79.625 100.843-83.0702 105.309-83.0702C109.812-83.0702 113.301-79.625 113.301-75.0785C113.301-70.656 109.812-67.0684 105.309-67.0684ZM94.4347-80.9111L21.8791-80.9111C18.6411-80.9111 16.084-78.2241 16.084-75.0231C16.084-71.8778 18.6596-69.1351 21.8791-69.1351L94.4347-69.1351ZM140.704-80.9111L116.302-80.9111L116.302-69.1351L140.704-69.1351C143.793-69.1351 146.369-71.8407 146.369-75.0231C146.369-78.2612 143.812-80.9111 140.704-80.9111Z"/>
  </g>
  <g id="Medium-L" transform="matrix(1 0 0 1 1666.35 1556)">
   <path d="M103.931 19.2851C112.465 19.2851 119.451 12.3209 119.451 3.76469C119.451-4.72165 112.475-11.7082 103.931-11.7082C95.3973-11.7082 88.4107-4.72165 88.4107 3.76469C88.4107 12.3209 95.3973 19.2851 103.931 19.2851ZM103.931 11.5864C99.5502 11.5864 96.1094 8.12309 96.1094 3.74223C96.1094-0.659658 99.5502-4.07943 103.931-4.07943C108.333-4.07943 111.753-0.659658 111.753 3.74223C111.753 8.12309 108.333 11.5864 103.931 11.5864ZM93.3369-1.46722L21.2409-1.46722C18.3601-1.46722 16.084 0.894445 16.084 3.74223C16.084 6.60592 18.3706 8.95168 21.2409 8.95168L93.3369 8.95168ZM139.315-1.46722L115.106-1.46722L115.106 8.95168L139.315 8.95168C142.031 8.95168 144.33 6.62695 144.33 3.74223C144.33 0.873419 142.042-1.46722 139.315-1.46722ZM57.637-19.7893C66.1497-19.7893 73.1573-26.7534 73.1573-35.3097C73.1573-43.796 66.1707-50.7826 57.637-50.7826C49.0807-50.7826 42.1166-43.796 42.1166-35.3097C42.1166-26.7534 49.0807-19.7893 57.637-19.7893ZM57.637-27.488C53.2561-27.488 49.7928-30.9513 49.7928-35.3322C49.7928-39.734 53.2561-43.1538 57.637-43.1538C62.0388-43.1538 65.4586-39.734 65.4586-35.3322C65.4586-30.9513 62.0388-27.488 57.637-27.488ZM21.0511-40.5416C18.3601-40.5416 16.084-38.1799 16.084-35.3322C16.084-32.4685 18.3706-30.1227 21.0511-30.1227L46.6486-30.1227L46.6486-40.5416ZM139.173-40.5416L68.118-40.5416L68.118-30.1227L139.173-30.1227C142.031-30.1227 144.33-32.4474 144.33-35.3322C144.33-38.201 142.042-40.5416 139.173-40.5416ZM103.931-58.9311C112.465-58.9311 119.451-65.9177 119.451-74.4515C119.451-82.9853 112.465-89.9718 103.931-89.9718C95.3973-89.9718 88.4107-82.9853 88.4107-74.4515C88.4107-65.9177 95.3973-58.9311 103.931-58.9311ZM103.931-66.6298C99.5502-66.6298 96.1094-70.1405 96.1094-74.4739C96.1094-78.9233 99.5502-82.2956 103.931-82.2956C108.333-82.2956 111.753-78.9233 111.753-74.4739C111.753-70.1405 108.333-66.6298 103.931-66.6298ZM93.4643-79.616L21.2409-79.616C18.3601-79.616 16.084-77.2543 16.084-74.4065C16.084-71.5903 18.3706-69.1971 21.2409-69.1971L93.4643-69.1971ZM139.315-79.616L114.577-79.616L114.577-69.1971L139.315-69.1971C142.031-69.1971 144.33-71.5693 144.33-74.4065C144.33-77.2754 142.042-79.616 139.315-79.616Z"/>
  </g>
  <g id="Regular-L" transform="matrix(1 0 0 1 1370.97 1556)">
   <path d="M102.133 17.9628C110.127 17.9628 116.679 11.439 116.679 3.41738C116.679-4.52379 110.127-11.0753 102.133-11.0753C94.1394-11.0753 87.5879-4.52379 87.5879 3.41738C87.5879 11.439 94.1394 17.9628 102.133 17.9628ZM102.133 11.0173C97.8634 11.0173 94.5334 7.65963 94.5334 3.38972C94.5334-0.880182 97.8634-4.21016 102.133-4.21016C106.403-4.21016 109.733-0.880182 109.733 3.38972C109.733 7.65963 106.403 11.0173 102.133 11.0173ZM92.0757-0.934707L20.4084-0.934707C17.9937-0.934707 16.084 1.00263 16.084 3.38972C16.084 5.82958 17.9937 7.71415 20.4084 7.71415L92.0757 7.71415ZM137.505-0.934707L112.899-0.934707L112.899 7.71415L137.505 7.71415C139.734 7.71415 141.671 5.82958 141.671 3.38972C141.671 1.00263 139.734-0.934707 137.505-0.934707ZM56.8889-20.5332C64.8828-20.5332 71.4343-27.0571 71.4343-35.0787C71.4343-43.0198 64.8828-49.5713 56.8889-49.5713C48.8673-49.5713 42.3434-43.0198 42.3434-35.0787C42.3434-27.0571 48.8673-20.5332 56.8889-20.5332ZM56.8889-27.4788C52.6189-27.4788 49.2613-30.8364 49.2613-35.1063C49.2613-39.3762 52.6189-42.7062 56.8889-42.7062C61.1588-42.7062 64.4887-39.3762 64.4887-35.1063C64.4887-30.8364 61.1588-27.4788 56.8889-27.4788ZM20.1974-39.4307C17.9937-39.4307 16.084-37.4934 16.084-35.1063C16.084-32.6665 17.9937-30.7819 20.1974-30.7819L46.2309-30.7819L46.2309-39.4307ZM137.347-39.4307L66.9439-39.4307L66.9439-30.7819L137.347-30.7819C139.734-30.7819 141.671-32.6665 141.671-35.1063C141.671-37.4934 139.734-39.4307 137.347-39.4307ZM102.133-59.1123C110.127-59.1123 116.679-65.6637 116.679-73.6577C116.679-81.6516 110.127-88.2031 102.133-88.2031C94.1394-88.2031 87.5879-81.6516 87.5879-73.6577C87.5879-65.6637 94.1394-59.1123 102.133-59.1123ZM102.133-66.0578C97.8634-66.0578 94.5334-69.4682 94.5334-73.6853C94.5334-78.008 97.8634-81.2852 102.133-81.2852C106.403-81.2852 109.733-78.008 109.733-73.6853C109.733-69.4682 106.403-66.0578 102.133-66.0578ZM92.1987-77.9268L20.4084-77.9268C17.9937-77.9268 16.084-75.9894 16.084-73.6023C16.084-71.2153 17.9937-69.2779 20.4084-69.2779L92.1987-69.2779ZM137.505-77.9268L112.327-77.9268L112.327-69.2779L137.505-69.2779C139.734-69.2779 141.671-71.2153 141.671-73.6023C141.671-75.9894 139.734-77.9268 137.505-77.9268Z"/>
  </g>
  <g id="Light-L" transform="matrix(1 0 0 1 1075.18 1556)">
   <path d="M102.133 17.2376C109.65 17.2376 115.839 11.0954 115.839 3.53189C115.839-3.95123 109.65-10.1401 102.133-10.1401C94.6165-10.1401 88.4276-3.95123 88.4276 3.53189C88.4276 11.0954 94.6165 17.2376 102.133 17.2376ZM102.133 11.4371C97.6916 11.4371 94.2281 7.92682 94.2281 3.48515C94.2281-0.956523 97.6916-4.42009 102.133-4.42009C106.575-4.42009 110.039-0.956523 110.039 3.48515C110.039 7.92682 106.575 11.4371 102.133 11.4371ZM91.9612 0.172239L19.3969 0.172239C17.5356 0.172239 16.084 1.67061 16.084 3.48515C16.084 5.33337 17.5356 6.79806 19.3969 6.79806L91.9612 6.79806ZM136.608 0.172239L112.67 0.172239L112.67 6.79806L136.608 6.79806C138.321 6.79806 139.82 5.33337 139.82 3.48515C139.82 1.67061 138.321 0.172239 136.608 0.172239ZM55.801-21.2967C63.3178-21.2967 69.5067-27.4388 69.5067-35.0023C69.5067-42.4854 63.3178-48.6743 55.801-48.6743C48.2374-48.6743 42.0953-42.4854 42.0953-35.0023C42.0953-27.4388 48.2374-21.2967 55.801-21.2967ZM55.801-27.0971C51.3593-27.0971 47.849-30.6074 47.849-35.0491C47.849-39.4907 51.3593-42.9543 55.801-42.9543C60.2427-42.9543 63.7062-39.4907 63.7062-35.0491C63.7062-30.6074 60.2427-27.0971 55.801-27.0971ZM19.2622-38.362C17.5356-38.362 16.084-36.8636 16.084-35.0491C16.084-33.2008 17.5356-31.7361 19.2622-31.7361L45.3911-31.7361L45.3911-38.362ZM136.507-38.362L65.9133-38.362L65.9133-31.7361L136.507-31.7361C138.321-31.7361 139.82-33.2008 139.82-35.0491C139.82-36.8636 138.321-38.362 136.507-38.362ZM102.133-59.9711C109.65-59.9711 115.839-66.1599 115.839-73.6767C115.839-81.1935 109.65-87.3824 102.133-87.3824C94.6165-87.3824 88.4276-81.1935 88.4276-73.6767C88.4276-66.1599 94.6165-59.9711 102.133-59.9711ZM102.133-65.7715C97.6916-65.7715 94.2281-69.3155 94.2281-73.7235C94.2281-78.1988 97.6916-81.6287 102.133-81.6287C106.575-81.6287 110.039-78.1988 110.039-73.7235C110.039-69.3155 106.575-65.7715 102.133-65.7715ZM91.8361-76.8962L19.3969-76.8962C17.5356-76.8962 16.084-75.3978 16.084-73.5833C16.084-71.7687 17.5356-70.2704 19.3969-70.2704L91.8361-70.2704ZM136.608-76.8962L112.479-76.8962L112.479-70.2704L136.608-70.2704C138.321-70.2704 139.82-71.7687 139.82-73.5833C139.82-75.3978 138.321-76.8962 136.608-76.8962Z"/>
  </g>
  <g id="Thin-L" transform="matrix(1 0 0 1 779.695 1556)">
   <path d="M102.133 16.2784C109.019 16.2784 114.728 10.6411 114.728 3.68334C114.728-3.19398 109.019-8.90324 102.133-8.90324C95.2475-8.90324 89.5383-3.19398 89.5383 3.68334C89.5383 10.6411 95.2475 16.2784 102.133 16.2784ZM102.133 11.9925C97.4645 11.9925 93.8242 8.28021 93.8242 3.61136C93.8242-1.05749 97.4645-4.69775 102.133-4.69775C106.802-4.69775 110.442-1.05749 110.442 3.61136C110.442 8.28021 106.802 11.9925 102.133 11.9925ZM91.8097 1.63626L18.0591 1.63626C16.9298 1.63626 16.084 2.55408 16.084 3.61136C16.084 4.67708 16.9298 5.58645 18.0591 5.58645L91.8097 5.58645ZM135.422 1.63626L112.367 1.63626L112.367 5.58645L135.422 5.58645C136.454 5.58645 137.371 4.67708 137.371 3.61136C137.371 2.55408 136.454 1.63626 135.422 1.63626ZM54.3622-22.3063C61.248-22.3063 66.9572-27.9436 66.9572-34.9013C66.9572-41.7787 61.248-47.4879 54.3622-47.4879C47.4045-47.4879 41.7672-41.7787 41.7672-34.9013C41.7672-27.9436 47.4045-22.3063 54.3622-22.3063ZM54.3622-26.5922C49.6934-26.5922 45.9811-30.3045 45.9811-34.9733C45.9811-39.6422 49.6934-43.2824 54.3622-43.2824C59.0311-43.2824 62.6713-39.6422 62.6713-34.9733C62.6713-30.3045 59.0311-26.5922 54.3622-26.5922ZM18.0253-36.9484C16.9298-36.9484 16.084-36.0306 16.084-34.9733C16.084-33.9076 16.9298-32.9982 18.0253-32.9982L44.2805-32.9982L44.2805-36.9484ZM135.396-36.9484L64.5502-36.9484L64.5502-32.9982L135.396-32.9982C136.454-32.9982 137.371-33.9076 137.371-34.9733C137.371-36.0306 136.454-36.9484 135.396-36.9484ZM102.133-61.107C109.019-61.107 114.728-66.8162 114.728-73.702C114.728-80.5877 109.019-86.297 102.133-86.297C95.2475-86.297 89.5383-80.5877 89.5383-73.702C89.5383-66.8162 95.2475-61.107 102.133-61.107ZM102.133-65.3929C97.4645-65.3929 93.8242-69.1136 93.8242-73.774C93.8242-78.4513 97.4645-82.0831 102.133-82.0831C106.802-82.0831 110.442-78.4513 110.442-73.774C110.442-69.1136 106.802-65.3929 102.133-65.3929ZM91.3565-75.5331L18.0591-75.5331C16.9298-75.5331 16.084-74.6153 16.084-73.558C16.084-72.5007 16.9298-71.5829 18.0591-71.5829L91.3565-71.5829ZM135.422-75.5331L112.681-75.5331L112.681-71.5829L135.422-71.5829C136.454-71.5829 137.371-72.5007 137.371-73.558C137.371-74.6153 136.454-75.5331 135.422-75.5331Z"/>
  </g>
  <g id="Ultralight-L" transform="matrix(1 0 0 1 483.61 1556)">
   <path d="M102.133 15.7871C108.696 15.7871 114.159 10.4084 114.159 3.76092C114.159-2.80612 108.696-8.26973 102.133-8.26973C95.5708-8.26973 90.1071-2.80612 90.1071 3.76092C90.1071 10.4084 95.5708 15.7871 102.133 15.7871ZM102.133 12.2769C97.3481 12.2769 93.6173 8.46121 93.6173 3.676C93.6173-1.10921 97.3481-4.83997 102.133-4.83997C106.919-4.83997 110.649-1.10921 110.649 3.676C110.649 8.46121 106.919 12.2769 102.133 12.2769ZM91.7322 2.38613L17.3739 2.38613C16.6195 2.38613 16.084 3.00658 16.084 3.676C16.084 4.34093 16.6195 4.96587 17.3739 4.96587L91.7322 4.96587ZM134.814 2.38613L112.212 2.38613L112.212 4.96587L134.814 4.96587C135.497 4.96587 136.117 4.34093 136.117 3.676C136.117 3.00658 135.497 2.38613 134.814 2.38613ZM53.6253-22.8235C60.1878-22.8235 65.6514-28.2022 65.6514-34.8496C65.6514-41.4167 60.1878-46.8803 53.6253-46.8803C46.9778-46.8803 41.5991-41.4167 41.5991-34.8496C41.5991-28.2022 46.9778-22.8235 53.6253-22.8235ZM53.6253-26.3337C48.8401-26.3337 45.0244-30.1493 45.0244-34.9345C45.0244-39.7198 48.8401-43.4505 53.6253-43.4505C58.4105-43.4505 62.1412-39.7198 62.1412-34.9345C62.1412-30.1493 58.4105-26.3337 53.6253-26.3337ZM17.3918-36.2244C16.6195-36.2244 16.084-35.604 16.084-34.9345C16.084-34.2696 16.6195-33.6447 17.3918-33.6447L43.7116-33.6447L43.7116-36.2244ZM134.827-36.2244L63.8521-36.2244L63.8521-33.6447L134.827-33.6447C135.497-33.6447 136.117-34.2696 136.117-34.9345C136.117-35.604 135.497-36.2244 134.827-36.2244ZM102.133-61.6888C108.696-61.6888 114.159-67.1524 114.159-73.7149C114.159-80.2775 108.696-85.7411 102.133-85.7411C95.5708-85.7411 90.1071-80.2775 90.1071-73.7149C90.1071-67.1524 95.5708-61.6888 102.133-61.6888ZM102.133-65.1989C97.3481-65.1989 93.6173-69.0101 93.6173-73.7998C93.6173-78.5805 97.3481-82.3158 102.133-82.3158C106.919-82.3158 110.649-78.5805 110.649-73.7998C110.649-69.0101 106.919-65.1989 102.133-65.1989ZM91.1108-74.835L17.3739-74.835C16.6195-74.835 16.084-74.2145 16.084-73.5451C16.084-72.8757 16.6195-72.2552 17.3739-72.2552L91.1108-72.2552ZM134.814-74.835L112.785-74.835L112.785-72.2552L134.814-72.2552C135.497-72.2552 136.117-72.8757 136.117-73.5451C136.117-74.2145 135.497-74.835 134.814-74.835Z"/>
  </g>
  <g id="Black-M" transform="matrix(1 0 0 1 2865.38 1126)">
   <path d="M88.8904 12.9151C97.8532 12.9151 105.168 5.59953 105.168-3.36293C105.168-12.3202 97.9103-19.6355 88.8904-19.6355C79.9277-19.6355 72.6124-12.3202 72.6124-3.36293C72.6124 5.59953 79.9277 12.9151 88.8904 12.9151ZM88.8904 3.83345C84.9213 3.83345 81.694 0.606486 81.694-3.36265C81.694-7.44597 84.9213-10.559 88.8904-10.559C92.9738-10.559 96.0868-7.44597 96.0868-3.36265C96.0868 0.606486 92.9738 3.83345 88.8904 3.83345ZM78.1454-11.1752L19.988-11.1752C15.7747-11.1752 12.4609-7.51912 12.4609-3.36265C12.4609 0.62803 15.8318 4.44988 19.988 4.44988L78.1454 4.44988ZM116.059-11.1752L99.3761-11.1752L99.3761 4.44988L116.059 4.44988C120.256 4.44988 123.569 0.742223 123.569-3.36265C123.569-7.63331 120.313-11.1752 116.059-11.1752ZM47.7668-20.0634C56.6153-20.0634 64.0448-27.3789 64.0448-36.3414C64.0448-45.2986 56.7295-52.6139 47.7668-52.6139C38.8043-52.6139 31.4888-45.2986 31.4888-36.3414C31.4888-27.3789 38.8043-20.0634 47.7668-20.0634ZM47.7668-29.145C43.7977-29.145 40.5707-32.372 40.5707-36.3411C40.5707-40.4244 43.7977-43.5375 47.7668-43.5375C51.8501-43.5375 54.9632-40.4244 54.9632-36.3411C54.9632-32.372 51.8501-29.145 47.7668-29.145ZM19.966-44.1536C15.7747-44.1536 12.4609-40.4976 12.4609-36.3411C12.4609-32.3504 15.8318-28.5286 19.966-28.5286L37.8-28.5286L37.8-44.1536ZM116.042-44.1536L57.8898-44.1536L57.8898-28.5286L116.042-28.5286C120.256-28.5286 123.569-32.2362 123.569-36.3411C123.569-40.6118 120.313-44.1536 116.042-44.1536ZM88.8904-53.041C97.8532-53.041 105.168-60.3563 105.168-69.319C105.168-78.2818 97.8532-85.597 88.8904-85.597C79.9277-85.597 72.6124-78.2818 72.6124-69.319C72.6124-60.3563 79.9277-53.041 88.8904-53.041ZM88.8904-62.1226C84.9213-62.1226 81.694-65.3551 81.694-69.3187C81.694-73.4076 84.9213-76.5151 88.8904-76.5151C92.9738-76.5151 96.0868-73.4076 96.0868-69.3187C96.0868-65.3551 92.9738-62.1226 88.8904-62.1226ZM78.1804-77.1321L19.988-77.1321C15.7747-77.1321 12.4609-73.4761 12.4609-69.3196C12.4609-65.3344 15.8318-61.5071 19.988-61.5071L78.1804-61.5071ZM116.059-77.1321L99.2975-77.1321L99.2975-61.5071L116.059-61.5071C120.256-61.5071 123.569-65.2202 123.569-69.3196C123.569-73.5903 120.313-77.1321 116.059-77.1321Z"/>
  </g>
  <g id="Heavy-M" transform="matrix(1 0 0 1 2570.18 1126)">
   <path d="M86.5862 11.3761C94.9596 11.3761 101.795 4.5429 101.795-3.83268C101.795-12.1896 95.0032-19.0251 86.5862-19.0251C78.2129-19.0251 71.3774-12.1896 71.3774-3.83268C71.3774 4.5429 78.2129 11.3761 86.5862 11.3761ZM86.5862 3.01385C82.7962 3.01385 79.7397-0.0449295 79.7397-3.83495C79.7397-7.71222 82.7962-10.6815 86.5862-10.6815C90.4635-10.6815 93.4328-7.71222 93.4328-3.83495C93.4328-0.0449295 90.4635 3.01385 86.5862 3.01385ZM76.5536-10.7304L19.1383-10.7304C15.4034-10.7304 12.4609-7.52395 12.4609-3.83495C12.4609-0.260407 15.447 3.06053 19.1383 3.06053L76.5536 3.06053ZM113.931-10.7304L96.5965-10.7304L96.5965 3.06053L113.931 3.06053C117.614 3.06053 120.559-0.173164 120.559-3.83495C120.559-7.6112 117.658-10.7304 113.931-10.7304ZM47.0416-20.8529C55.3277-20.8529 62.2504-27.6861 62.2504-36.0617C62.2504-44.4186 55.4149-51.2541 47.0416-51.2541C38.6661-51.2541 31.8328-44.4186 31.8328-36.0617C31.8328-27.6861 38.6661-20.8529 47.0416-20.8529ZM47.0416-29.2152C43.2516-29.2152 40.1928-32.2739 40.1928-36.064C40.1928-39.9412 43.2516-42.9105 47.0416-42.9105C50.9189-42.9105 53.8882-39.9412 53.8882-36.064C53.8882-32.2739 50.9189-29.2152 47.0416-29.2152ZM19.0727-42.9594C15.4034-42.9594 12.4609-39.753 12.4609-36.064C12.4609-32.4894 15.447-29.1685 19.0727-29.1685L37.4449-29.1685L37.4449-42.9594ZM113.881-42.9594L56.6063-42.9594L56.6063-29.1685L113.881-29.1685C117.614-29.1685 120.559-32.4022 120.559-36.064C120.559-39.8402 117.658-42.9594 113.881-42.9594ZM86.5862-53.0887C94.9596-53.0887 101.795-59.9242 101.795-68.2975C101.795-76.6708 94.9596-83.5063 86.5862-83.5063C78.2129-83.5063 71.3774-76.6708 71.3774-68.2975C71.3774-59.9242 78.2129-53.0887 86.5862-53.0887ZM86.5862-61.451C82.7962-61.451 79.7397-64.5262 79.7397-68.2998C79.7397-72.1934 82.7962-75.1463 86.5862-75.1463C90.4635-75.1463 93.4328-72.1934 93.4328-68.2998C93.4328-64.5262 90.4635-61.451 86.5862-61.451ZM76.6361-75.1884L19.1383-75.1884C15.4034-75.1884 12.4609-71.982 12.4609-68.2929C12.4609-64.7348 15.447-61.3975 19.1383-61.3975L76.6361-61.3975ZM113.931-75.1884L96.3804-75.1884L96.3804-61.3975L113.931-61.3975C117.614-61.3975 120.559-64.6476 120.559-68.2929C120.559-72.0692 117.658-75.1884 113.931-75.1884Z"/>
  </g>
  <g id="Bold-M" transform="matrix(1 0 0 1 2275.15 1126)">
   <path d="M84.0087 9.65458C91.7226 9.65458 98.0214 3.36091 98.0214-4.35816C98.0214-12.0435 91.7512-18.3423 84.0087-18.3423C76.2948-18.3423 69.9959-12.0435 69.9959-4.35816C69.9959 3.36091 76.2948 9.65458 84.0087 9.65458ZM84.0087 2.097C80.419 2.097 77.5535-0.773632 77.5535-4.36329C77.5535-8.01005 80.419-10.8185 84.0087-10.8185C87.6555-10.8185 90.4638-8.01005 90.4638-4.36329C90.4638-0.773632 87.6555 2.097 84.0087 2.097ZM74.7728-10.2329L18.1878-10.2329C14.9881-10.2329 12.4609-7.52936 12.4609-4.36329C12.4609-1.25425 15.0166 1.50634 18.1878 1.50634L74.7728 1.50634ZM111.55-10.2329L93.4872-10.2329L93.4872 1.50634L111.55 1.50634C114.659 1.50634 117.191-1.19716 117.191-4.36329C117.191-7.58646 114.688-10.2329 111.55-10.2329ZM46.2304-21.736C53.8873-21.736 60.2432-28.0297 60.2432-35.7488C60.2432-43.4341 53.9444-49.7329 46.2304-49.7329C38.5114-49.7329 32.2177-43.4341 32.2177-35.7488C32.2177-28.0297 38.5114-21.736 46.2304-21.736ZM46.2304-29.2936C42.6408-29.2936 39.7701-32.1642 39.7701-35.7539C39.7701-39.4007 42.6408-42.2091 46.2304-42.2091C49.8772-42.2091 52.6856-39.4007 52.6856-35.7539C52.6856-32.1642 49.8772-29.2936 46.2304-29.2936ZM18.0733-41.6235C14.9881-41.6235 12.4609-38.92 12.4609-35.7539C12.4609-32.6449 15.0166-29.8843 18.0733-29.8843L37.0477-29.8843L37.0477-41.6235ZM111.464-41.6235L55.1706-41.6235L55.1706-29.8843L111.464-29.8843C114.659-29.8843 117.191-32.5878 117.191-35.7539C117.191-38.9771 114.688-41.6235 111.464-41.6235ZM84.0087-53.142C91.7226-53.142 98.0214-59.4408 98.0214-67.1548C98.0214-74.8687 91.7226-81.1675 84.0087-81.1675C76.2948-81.1675 69.9959-74.8687 69.9959-67.1548C69.9959-59.4408 76.2948-53.142 84.0087-53.142ZM84.0087-60.6996C80.419-60.6996 77.5535-63.5989 77.5535-67.1599C77.5535-70.8353 80.419-73.6151 84.0087-73.6151C87.6555-73.6151 90.4638-70.8353 90.4638-67.1599C90.4638-63.5989 87.6555-60.6996 84.0087-60.6996ZM74.9086-73.0141L18.1878-73.0141C14.9881-73.0141 12.4609-70.3106 12.4609-67.1445C12.4609-64.0641 15.0166-61.2749 18.1878-61.2749L74.9086-61.2749ZM111.55-73.0141L93.1173-73.0141L93.1173-61.2749L111.55-61.2749C114.659-61.2749 117.191-64.007 117.191-67.1445C117.191-70.3677 114.688-73.0141 111.55-73.0141Z"/>
  </g>
  <g id="Semibold-M" transform="matrix(1 0 0 1 1979.6 1126)">
   <path d="M82.2317 8.46776C89.4911 8.46776 95.4199 2.54605 95.4199-4.72043C95.4199-11.9428 89.5093-17.8716 82.2317-17.8716C74.9724-17.8716 69.0436-11.9428 69.0436-4.72043C69.0436 2.54605 74.9724 8.46776 82.2317 8.46776ZM82.2317 1.46493C78.7802 1.46493 76.0464-1.276 76.0464-4.72753C76.0464-8.21538 78.7802-10.9129 82.2317-10.9129C85.7196-10.9129 88.4171-8.21538 88.4171-4.72753C88.4171-1.276 85.7196 1.46493 82.2317 1.46493ZM73.5452-9.88995L17.5326-9.88995C14.7018-9.88995 12.4609-7.53309 12.4609-4.72753C12.4609-1.9394 14.7199 0.434884 17.5326 0.434884L73.5452 0.434884ZM109.909-9.88995L91.3437-9.88995L91.3437 0.434884L109.909 0.434884C112.622 0.434884 114.87-1.90309 114.87-4.72753C114.87-7.5694 112.64-9.88995 109.909-9.88995ZM45.6712-22.3449C52.8943-22.3449 58.8594-28.2666 58.8594-35.533C58.8594-42.7554 52.9306-48.6842 45.6712-48.6842C38.4047-48.6842 32.483-42.7554 32.483-35.533C32.483-28.2666 38.4047-22.3449 45.6712-22.3449ZM45.6712-29.3477C42.2197-29.3477 39.4788-32.0886 39.4788-35.5402C39.4788-39.028 42.2197-41.7255 45.6712-41.7255C49.1591-41.7255 51.8566-39.028 51.8566-35.5402C51.8566-32.0886 49.1591-29.3477 45.6712-29.3477ZM17.3844-40.7026C14.7018-40.7026 12.4609-38.3457 12.4609-35.5402C12.4609-32.752 14.7199-30.3777 17.3844-30.3777L36.7739-30.3777L36.7739-40.7026ZM109.798-40.7026L54.1809-40.7026L54.1809-30.3777L109.798-30.3777C112.622-30.3777 114.87-32.7157 114.87-35.5402C114.87-38.382 112.64-40.7026 109.798-40.7026ZM82.2317-53.1788C89.4911-53.1788 95.4199-59.1076 95.4199-66.367C95.4199-73.6264 89.4911-79.5552 82.2317-79.5552C74.9724-79.5552 69.0436-73.6264 69.0436-66.367C69.0436-59.1076 74.9724-53.1788 82.2317-53.1788ZM82.2317-60.1816C78.7802-60.1816 76.0464-62.9596 76.0464-66.3741C76.0464-69.899 78.7802-72.5594 82.2317-72.5594C85.7196-72.5594 88.4171-69.899 88.4171-66.3741C88.4171-62.9596 85.7196-60.1816 82.2317-60.1816ZM73.7177-71.5152L17.5326-71.5152C14.7018-71.5152 12.4609-69.1583 12.4609-66.3528C12.4609-63.6017 14.7199-61.1904 17.5326-61.1904L73.7177-61.1904ZM109.909-71.5152L90.8677-71.5152L90.8677-61.1904L109.909-61.1904C112.622-61.1904 114.87-63.5654 114.87-66.3528C114.87-69.1946 112.64-71.5152 109.909-71.5152Z"/>
  </g>
  <g id="Medium-M" transform="matrix(1 0 0 1 1683.77 1126)">
   <path d="M80.8844 7.56786C87.7991 7.56786 93.4473 1.92819 93.4473-4.99511C93.4473-11.8664 87.8094-17.5147 80.8844-17.5147C73.9697-17.5147 68.3214-11.8664 68.3214-4.99511C68.3214 1.92819 73.9697 7.56786 80.8844 7.56786ZM80.8844 0.985665C77.5376 0.985665 74.9036-1.65691 74.9036-5.00371C74.9036-8.37107 77.5376-10.9845 80.8844-10.9845C84.2517-10.9845 86.8652-8.37107 86.8652-5.00371C86.8652-1.65691 84.2517 0.985665 80.8844 0.985665ZM72.6143-9.62989L17.0357-9.62989C14.4846-9.62989 12.4609-7.53591 12.4609-5.00371C12.4609-2.45891 14.4949-0.377535 17.0357-0.377535L72.6143-0.377535ZM108.665-9.62989L89.7184-9.62989L89.7184-0.377535L108.665-0.377535C111.077-0.377535 113.109-2.43836 113.109-5.00371C113.109-7.55647 111.087-9.62989 108.665-9.62989ZM45.2472-22.8065C52.1413-22.8065 57.8102-28.4462 57.8102-35.3695C57.8102-42.2408 52.1619-47.889 45.2472-47.889C38.3239-47.889 32.6842-42.2408 32.6842-35.3695C32.6842-28.4462 38.3239-22.8065 45.2472-22.8065ZM45.2472-29.3887C41.9004-29.3887 39.2578-32.0313 39.2578-35.3781C39.2578-38.7454 41.9004-41.3589 45.2472-41.3589C48.6145-41.3589 51.228-38.7454 51.228-35.3781C51.228-32.0313 48.6145-29.3887 45.2472-29.3887ZM16.862-40.0043C14.4846-40.0043 12.4609-37.9103 12.4609-35.3781C12.4609-32.8333 14.4949-30.7519 16.862-30.7519L36.5663-30.7519L36.5663-40.0043ZM108.535-40.0043L53.4304-40.0043L53.4304-30.7519L108.535-30.7519C111.077-30.7519 113.109-32.8127 113.109-35.3781C113.109-37.9308 111.087-40.0043 108.535-40.0043ZM80.8844-53.2067C87.7991-53.2067 93.4473-58.855 93.4473-65.7697C93.4473-72.6844 87.7991-78.3326 80.8844-78.3326C73.9697-78.3326 68.3214-72.6844 68.3214-65.7697C68.3214-58.855 73.9697-53.2067 80.8844-53.2067ZM80.8844-59.7889C77.5376-59.7889 74.9036-62.4749 74.9036-65.7783C74.9036-69.189 77.5376-71.759 80.8844-71.759C84.2517-71.759 86.8652-69.189 86.8652-65.7783C86.8652-62.4749 84.2517-59.7889 80.8844-59.7889ZM72.8147-70.3786L17.0357-70.3786C14.4846-70.3786 12.4609-68.2847 12.4609-65.7525C12.4609-63.2511 14.4949-61.1263 17.0357-61.1263L72.8147-61.1263ZM108.665-70.3786L89.162-70.3786L89.162-61.1263L108.665-61.1263C111.077-61.1263 113.109-63.2305 113.109-65.7525C113.109-68.3052 111.087-70.3786 108.665-70.3786Z"/>
  </g>
  <g id="Regular-M" transform="matrix(1 0 0 1 1388.21 1126)">
   <path d="M79.127 6.39408C85.5921 6.39408 90.8744 1.12229 90.8744-5.35339C90.8744-11.7668 85.5921-17.0491 79.127-17.0491C72.6618-17.0491 67.3795-11.7668 67.3795-5.35339C67.3795 1.12229 72.6618 6.39408 79.127 6.39408ZM79.127 0.360541C75.9168 0.360541 73.413-2.15375 73.413-5.36394C73.413-8.57414 75.9168-11.0779 79.127-11.0779C82.3371-11.0779 84.8409-8.57414 84.8409-5.36394C84.8409-2.15375 82.3371 0.360541 79.127 0.360541ZM71.4002-9.29068L16.3877-9.29068C14.2015-9.29068 12.4609-7.5396 12.4609-5.36394C12.4609-3.13653 14.2015-1.43721 16.3877-1.43721L71.4002-1.43721ZM107.042-9.29068L87.5984-9.29068L87.5984-1.43721L107.042-1.43721C109.062-1.43721 110.813-3.13653 110.813-5.36394C110.813-7.5396 109.062-9.29068 107.042-9.29068ZM44.6941-23.4087C51.1592-23.4087 56.4416-28.6805 56.4416-35.1561C56.4416-41.5695 51.1592-46.8519 44.6941-46.8519C38.2184-46.8519 32.9466-41.5695 32.9466-35.1561C32.9466-28.6805 38.2184-23.4087 44.6941-23.4087ZM44.6941-29.4422C41.4839-29.4422 38.9696-31.9565 38.9696-35.1667C38.9696-38.3769 41.4839-40.8806 44.6941-40.8806C47.9043-40.8806 50.408-38.3769 50.408-35.1667C50.408-31.9565 47.9043-29.4422 44.6941-29.4422ZM16.1807-39.0934C14.2015-39.0934 12.4609-37.3423 12.4609-35.1667C12.4609-32.9393 14.2015-31.24 16.1807-31.24L36.2955-31.24L36.2955-39.0934ZM106.887-39.0934L52.4515-39.0934L52.4515-31.24L106.887-31.24C109.062-31.24 110.813-32.9393 110.813-35.1667C110.813-37.3423 109.062-39.0934 106.887-39.0934ZM79.127-53.2431C85.5921-53.2431 90.8744-58.5254 90.8744-64.9905C90.8744-71.4557 85.5921-76.738 79.127-76.738C72.6618-76.738 67.3795-71.4557 67.3795-64.9905C67.3795-58.5254 72.6618-53.2431 79.127-53.2431ZM79.127-59.2766C75.9168-59.2766 73.413-61.8426 73.413-65.0011C73.413-68.263 75.9168-70.715 79.127-70.715C82.3371-70.715 84.8409-68.263 84.8409-65.0011C84.8409-61.8426 82.3371-59.2766 79.127-59.2766ZM71.6368-68.8962L16.3877-68.8962C14.2015-68.8962 12.4609-67.1451 12.4609-64.9694C12.4609-62.7938 14.2015-61.0427 16.3877-61.0427L71.6368-61.0427ZM107.042-68.8962L86.9371-68.8962L86.9371-61.0427L107.042-61.0427C109.062-61.0427 110.813-62.7938 110.813-64.9694C110.813-67.1451 109.062-68.8962 107.042-68.8962Z"/>
  </g>
  <g id="Light-M" transform="matrix(1 0 0 1 1092.33 1126)">
   <path d="M79.127 5.74386C85.1643 5.74386 90.1215 0.814291 90.1215-5.25073C90.1215-11.2534 85.1643-16.2107 79.127-16.2107C73.0896-16.2107 68.1324-11.2534 68.1324-5.25073C68.1324 0.814291 73.0896 5.74386 79.127 5.74386ZM79.127 0.736981C75.7628 0.736981 73.1392-1.9142 73.1392-5.27839C73.1392-8.64258 75.7628-11.2661 79.127-11.2661C82.4911-11.2661 85.1147-8.64258 85.1147-5.27839C85.1147-1.9142 82.4911 0.736981 79.127 0.736981ZM71.2975-8.29824L15.4808-8.29824C13.7908-8.29824 12.4609-6.94072 12.4609-5.27839C12.4609-3.58142 13.7908-2.25854 15.4808-2.25854L71.2975-2.25854ZM106.238-8.29824L87.3931-8.29824L87.3931-2.25854L106.238-2.25854C107.796-2.25854 109.154-3.58142 109.154-5.27839C109.154-6.94072 107.796-8.29824 106.238-8.29824ZM43.7188-24.0931C49.7561-24.0931 54.7134-29.0227 54.7134-35.0877C54.7134-41.0904 49.7561-46.0476 43.7188-46.0476C37.6538-46.0476 32.7242-41.0904 32.7242-35.0877C32.7242-29.0227 37.6538-24.0931 43.7188-24.0931ZM43.7188-29.1C40.3546-29.1 37.7034-31.7512 37.7034-35.1154C37.7034-38.4795 40.3546-41.1031 43.7188-41.1031C47.083-41.1031 49.7065-38.4795 49.7065-35.1154C49.7065-31.7512 47.083-29.1 43.7188-29.1ZM15.3422-38.1352C13.7908-38.1352 12.4609-36.7777 12.4609-35.1154C12.4609-33.4184 13.7908-32.0955 15.3422-32.0955L35.5426-32.0955L35.5426-38.1352ZM106.134-38.1352L51.5275-38.1352L51.5275-32.0955L106.134-32.0955C107.796-32.0955 109.154-33.4184 109.154-35.1154C109.154-36.7777 107.796-38.1352 106.134-38.1352ZM79.127-54.0131C85.1643-54.0131 90.1215-58.9703 90.1215-65.0076C90.1215-71.045 85.1643-76.0022 79.127-76.0022C73.0896-76.0022 68.1324-71.045 68.1324-65.0076C68.1324-58.9703 73.0896-54.0131 79.127-54.0131ZM79.127-59.0199C75.7628-59.0199 73.1392-61.7058 73.1392-65.0353C73.1392-68.4341 75.7628-71.023 79.127-71.023C82.4911-71.023 85.1147-68.4341 85.1147-65.0353C85.1147-61.7058 82.4911-59.0199 79.127-59.0199ZM71.3117-67.9722L15.4808-67.9722C13.7908-67.9722 12.4609-66.6146 12.4609-64.9523C12.4609-63.29 13.7908-61.9325 15.4808-61.9325L71.3117-61.9325ZM106.238-67.9722L87.074-67.9722L87.074-61.9325L106.238-61.9325C107.796-61.9325 109.154-63.29 109.154-64.9523C109.154-66.6146 107.796-67.9722 106.238-67.9722Z"/>
  </g>
  <g id="Thin-M" transform="matrix(1 0 0 1 796.712 1126)">
   <path d="M79.127 4.8839C84.5985 4.8839 89.1258 0.406941 89.1258-5.11494C89.1258-10.5745 84.5985-15.1018 79.127-15.1018C73.6554-15.1018 69.1281-10.5745 69.1281-5.11494C69.1281 0.406941 73.6554 4.8839 79.127 4.8839ZM79.127 1.23485C75.5591 1.23485 72.7772-1.59737 72.7772-5.16524C72.7772-8.7331 75.5591-11.515 79.127-11.515C82.6948-11.515 85.4768-8.7331 85.4768-5.16524C85.4768-1.59737 82.6948 1.23485 79.127 1.23485ZM71.1617-6.98567L14.2814-6.98567C13.2477-6.98567 12.4609-6.14865 12.4609-5.16524C12.4609-4.16981 13.2477-3.34481 14.2814-3.34481L71.1617-3.34481ZM105.174-6.98567L87.1215-6.98567L87.1215-3.34481L105.174-3.34481C106.122-3.34481 106.959-4.16981 106.959-5.16524C106.959-6.14865 106.122-6.98567 105.174-6.98567ZM42.4288-24.9983C47.9004-24.9983 52.4277-29.4753 52.4277-34.9972C52.4277-40.4567 47.9004-44.984 42.4288-44.984C36.9069-44.984 32.43-40.4567 32.43-34.9972C32.43-29.4753 36.9069-24.9983 42.4288-24.9983ZM42.4288-28.6474C38.861-28.6474 36.0287-31.4796 36.0287-35.0475C36.0287-38.6153 38.861-41.3973 42.4288-41.3973C45.9967-41.3973 48.7786-38.6153 48.7786-35.0475C48.7786-31.4796 45.9967-28.6474 42.4288-28.6474ZM14.2333-36.8679C13.2477-36.8679 12.4609-36.0309 12.4609-35.0475C12.4609-34.052 13.2477-33.227 14.2333-33.227L34.5469-33.227L34.5469-36.8679ZM105.138-36.8679L50.3055-36.8679L50.3055-33.227L105.138-33.227C106.122-33.227 106.959-34.052 106.959-35.0475C106.959-36.0309 106.122-36.8679 105.138-36.8679ZM79.127-55.0314C84.5985-55.0314 89.1258-59.5587 89.1258-65.0303C89.1258-70.5019 84.5985-75.0291 79.127-75.0291C73.6554-75.0291 69.1281-70.5019 69.1281-65.0303C69.1281-59.5587 73.6554-55.0314 79.127-55.0314ZM79.127-58.6805C75.5591-58.6805 72.7772-61.5247 72.7772-65.0806C72.7772-68.6604 75.5591-71.4304 79.127-71.4304C82.6948-71.4304 85.4768-68.6604 85.4768-65.0806C85.4768-61.5247 82.6948-58.6805 79.127-58.6805ZM70.8817-66.7501L14.2814-66.7501C13.2477-66.7501 12.4609-65.9131 12.4609-64.9297C12.4609-63.9463 13.2477-63.1093 14.2814-63.1093L70.8817-63.1093ZM105.174-66.7501L87.2551-66.7501L87.2551-63.1093L105.174-63.1093C106.122-63.1093 106.959-63.9463 106.959-64.9297C106.959-65.9131 106.122-66.7501 105.174-66.7501Z"/>
  </g>
  <g id="Ultralight-M" transform="matrix(1 0 0 1 500.564 1126)">
   <path d="M79.127 4.44343C84.3088 4.44343 88.6158 0.198298 88.6158-5.0454C88.6158-10.2268 84.3088-14.5338 79.127-14.5338C73.9451-14.5338 69.6381-10.2268 69.6381-5.0454C69.6381 0.198298 73.9451 4.44343 79.127 4.44343ZM79.127 1.48986C75.4548 1.48986 72.5917-1.43509 72.5917-5.10728C72.5917-8.77947 75.4548-11.6425 79.127-11.6425C82.7991-11.6425 85.6622-8.77947 85.6622-5.10728C85.6622-1.43509 82.7991 1.48986 79.127 1.48986ZM71.0922-6.31337L13.667-6.31337C12.9695-6.31337 12.4609-5.74295 12.4609-5.10728C12.4609-4.47119 12.9695-3.90119 13.667-3.90119L71.0922-3.90119ZM104.629-6.31337L86.9824-6.31337L86.9824-3.90119L104.629-3.90119C105.264-3.90119 105.834-4.47119 105.834-5.10728C105.834-5.74295 105.264-6.31337 104.629-6.31337ZM41.7681-25.462C46.9499-25.462 51.257-29.7071 51.257-34.9508C51.257-40.1322 46.9499-44.4392 41.7681-44.4392C36.5244-44.4392 32.2793-40.1322 32.2793-34.9508C32.2793-29.7071 36.5244-25.462 41.7681-25.462ZM41.7681-28.4155C38.0959-28.4155 35.171-31.3405 35.171-35.0127C35.171-38.6849 38.0959-41.5479 41.7681-41.5479C45.4403-41.5479 48.3034-38.6849 48.3034-35.0127C48.3034-31.3405 45.4403-28.4155 41.7681-28.4155ZM13.6653-36.2188C12.9695-36.2188 12.4609-35.6484 12.4609-35.0127C12.4609-34.3766 12.9695-33.8066 13.6653-33.8066L34.0369-33.8066L34.0369-36.2188ZM104.628-36.2188L49.6796-36.2188L49.6796-33.8066L104.628-33.8066C105.264-33.8066 105.834-34.3766 105.834-35.0127C105.834-35.6484 105.264-36.2188 104.628-36.2188ZM79.127-55.553C84.3088-55.553 88.6158-59.8601 88.6158-65.0419C88.6158-70.2237 84.3088-74.5307 79.127-74.5307C73.9451-74.5307 69.6381-70.2237 69.6381-65.0419C69.6381-59.8601 73.9451-55.553 79.127-55.553ZM79.127-58.5066C75.4548-58.5066 72.5917-61.432 72.5917-65.1037C72.5917-68.7764 75.4548-71.639 79.127-71.639C82.7991-71.639 85.6622-68.7764 85.6622-65.1037C85.6622-61.432 82.7991-58.5066 79.127-58.5066ZM70.6615-66.1242L13.667-66.1242C12.9695-66.1242 12.4609-65.5538 12.4609-64.9181C12.4609-64.2824 12.9695-63.712 13.667-63.712L70.6615-63.712ZM104.629-66.1242L87.3478-66.1242L87.3478-63.712L104.629-63.712C105.264-63.712 105.834-64.2824 105.834-64.9181C105.834-65.5538 105.264-66.1242 104.629-66.1242Z"/>
  </g>
  <g id="Black-S" transform="matrix(1 0 0 1 2879.69 696)">
   <path d="M70.3613 2.92969C77.5391 2.92969 83.3984-2.92969 83.3984-10.1074C83.3984-17.2852 77.5879-23.1445 70.3613-23.1445C63.1836-23.1445 57.3242-17.2852 57.3242-10.1074C57.3242-2.92969 63.1836 2.92969 70.3613 2.92969ZM70.3613-4.3457C67.1875-4.3457 64.5996-6.93359 64.5996-10.1074C64.5996-13.3789 67.1875-15.8691 70.3613-15.8691C73.6328-15.8691 76.123-13.3789 76.123-10.1074C76.123-6.93359 73.6328-4.3457 70.3613-4.3457ZM61.7188-16.4551L15.8691-16.4551C12.4512-16.4551 9.76562-13.4766 9.76562-10.1074C9.76562-6.88477 12.5-3.75977 15.8691-3.75977L61.7188-3.75977ZM91.5527-16.4551L78.7109-16.4551L78.7109-3.75977L91.5527-3.75977C94.9707-3.75977 97.6562-6.78711 97.6562-10.1074C97.6562-13.5742 95.0195-16.4551 91.5527-16.4551ZM37.5977-23.1445C44.6777-23.1445 50.6348-29.0039 50.6348-36.1816C50.6348-43.3594 44.7754-49.2188 37.5977-49.2188C30.4199-49.2188 24.5605-43.3594 24.5605-36.1816C24.5605-29.0039 30.4199-23.1445 37.5977-23.1445ZM37.5977-30.4199C34.4238-30.4199 31.8359-33.0078 31.8359-36.1816C31.8359-39.4531 34.4238-41.9434 37.5977-41.9434C40.8691-41.9434 43.3594-39.4531 43.3594-36.1816C43.3594-33.0078 40.8691-30.4199 37.5977-30.4199ZM15.8691-42.5293C12.4512-42.5293 9.76562-39.5508 9.76562-36.1816C9.76562-32.959 12.5-29.834 15.8691-29.834L29.6875-29.834L29.6875-42.5293ZM91.5527-42.5293L45.7031-42.5293L45.7031-29.834L91.5527-29.834C94.9707-29.834 97.6562-32.8613 97.6562-36.1816C97.6562-39.6484 95.0195-42.5293 91.5527-42.5293ZM70.3613-49.2188C77.5391-49.2188 83.3984-55.0781 83.3984-62.2559C83.3984-69.4336 77.5391-75.293 70.3613-75.293C63.1836-75.293 57.3242-69.4336 57.3242-62.2559C57.3242-55.0781 63.1836-49.2188 70.3613-49.2188ZM70.3613-56.4941C67.1875-56.4941 64.5996-59.082 64.5996-62.2559C64.5996-65.5273 67.1875-68.0176 70.3613-68.0176C73.6328-68.0176 76.123-65.5273 76.123-62.2559C76.123-59.082 73.6328-56.4941 70.3613-56.4941ZM61.7188-68.6035L15.8691-68.6035C12.4512-68.6035 9.76562-65.625 9.76562-62.2559C9.76562-59.0332 12.5-55.9082 15.8691-55.9082L61.7188-55.9082ZM91.5527-68.6035L78.7109-68.6035L78.7109-55.9082L91.5527-55.9082C94.9707-55.9082 97.6562-58.9355 97.6562-62.2559C97.6562-65.7227 95.0195-68.6035 91.5527-68.6035Z"/>
  </g>
  <g id="Heavy-S" transform="matrix(1 0 0 1 2584.16 696)">
   <path d="M68.3906 1.69657C75.1189 1.69657 80.6095-3.79402 80.6095-10.5223C80.6095-17.2391 75.1562-22.7297 68.3906-22.7297C61.6624-22.7297 56.1718-17.2391 56.1718-10.5223C56.1718-3.79402 61.6624 1.69657 68.3906 1.69657ZM68.3906-5.09479C65.3897-5.09479 62.9631-7.52134 62.9631-10.5223C62.9631-13.5979 65.3897-15.9498 68.3906-15.9498C71.4662-15.9498 73.8182-13.5979 73.8182-10.5223C73.8182-7.52134 71.4662-5.09479 68.3906-5.09479ZM60.3704-16.2015L15.2583-16.2015C12.1861-16.2015 9.76562-13.5572 9.76562-10.5223C9.76562-7.58776 12.2234-4.84307 15.2583-4.84307L60.3704-4.84307ZM89.8356-16.2015L76.3599-16.2015L76.3599-4.84307L89.8356-4.84307C92.8733-4.84307 95.2937-7.51315 95.2937-10.5223C95.2937-13.6318 92.9106-16.2015 89.8356-16.2015ZM37.1021-23.7323C43.7558-23.7323 49.321-29.2229 49.321-35.9512C49.321-42.6679 43.8304-48.1585 37.1021-48.1585C30.3738-48.1585 24.8832-42.6679 24.8832-35.9512C24.8832-29.2229 30.3738-23.7323 37.1021-23.7323ZM37.1021-30.5236C34.1011-30.5236 31.6746-32.9502 31.6746-35.9512C31.6746-39.0267 34.1011-41.3787 37.1021-41.3787C40.1777-41.3787 42.5296-39.0267 42.5296-35.9512C42.5296-32.9502 40.1777-30.5236 37.1021-30.5236ZM15.2122-41.6304C12.1861-41.6304 9.76562-38.9861 9.76562-35.9512C9.76562-33.0166 12.2234-30.2719 15.2122-30.2719L29.4801-30.2719L29.4801-41.6304ZM89.801-41.6304L44.7235-41.6304L44.7235-30.2719L89.801-30.2719C92.8733-30.2719 95.2937-32.942 95.2937-35.9512C95.2937-39.0607 92.9106-41.6304 89.801-41.6304ZM68.3906-49.1611C75.1189-49.1611 80.6095-54.6517 80.6095-61.38C80.6095-68.1083 75.1189-73.5989 68.3906-73.5989C61.6624-73.5989 56.1718-68.1083 56.1718-61.38C56.1718-54.6517 61.6624-49.1611 68.3906-49.1611ZM68.3906-55.9525C65.3897-55.9525 62.9631-58.3906 62.9631-61.38C62.9631-64.4671 65.3897-66.8075 68.3906-66.8075C71.4662-66.8075 73.8182-64.4671 73.8182-61.38C73.8182-58.3906 71.4662-55.9525 68.3906-55.9525ZM60.4395-67.0592L15.2583-67.0592C12.1861-67.0592 9.76562-64.4149 9.76562-61.38C9.76562-58.457 12.2234-55.7008 15.2583-55.7008L60.4395-55.7008ZM89.8356-67.0592L76.1986-67.0592L76.1986-55.7008L89.8356-55.7008C92.8733-55.7008 95.2937-58.3824 95.2937-61.38C95.2937-64.4895 92.9106-67.0592 89.8356-67.0592Z"/>
  </g>
  <g id="Bold-S" transform="matrix(1 0 0 1 2288.77 696)">
   <path d="M66.1865 0.317383C72.4121 0.317383 77.4902-4.76074 77.4902-10.9863C77.4902-17.1875 72.4365-22.2656 66.1865-22.2656C59.9609-22.2656 54.8828-17.1875 54.8828-10.9863C54.8828-4.76074 59.9609 0.317383 66.1865 0.317383ZM66.1865-5.93262C63.3789-5.93262 61.1328-8.17871 61.1328-10.9863C61.1328-13.8428 63.3789-16.04 66.1865-16.04C69.043-16.04 71.2402-13.8428 71.2402-10.9863C71.2402-8.17871 69.043-5.93262 66.1865-5.93262ZM58.8623-15.918L14.5752-15.918C11.8896-15.918 9.76562-13.6475 9.76562-10.9863C9.76562-8.37402 11.9141-6.05469 14.5752-6.05469L58.8623-6.05469ZM87.915-15.918L73.7305-15.918L73.7305-6.05469L87.915-6.05469C90.5273-6.05469 92.6514-8.3252 92.6514-10.9863C92.6514-13.6963 90.5518-15.918 87.915-15.918ZM36.5479-24.3896C42.7246-24.3896 47.8516-29.4678 47.8516-35.6934C47.8516-41.8945 42.7734-46.9727 36.5479-46.9727C30.3223-46.9727 25.2441-41.8945 25.2441-35.6934C25.2441-29.4678 30.3223-24.3896 36.5479-24.3896ZM36.5479-30.6396C33.7402-30.6396 31.4941-32.8857 31.4941-35.6934C31.4941-38.5498 33.7402-40.7471 36.5479-40.7471C39.4043-40.7471 41.6016-38.5498 41.6016-35.6934C41.6016-32.8857 39.4043-30.6396 36.5479-30.6396ZM14.4775-40.625C11.8896-40.625 9.76562-38.3545 9.76562-35.6934C9.76562-33.0811 11.9141-30.7617 14.4775-30.7617L29.248-30.7617L29.248-40.625ZM87.8418-40.625L43.6279-40.625L43.6279-30.7617L87.8418-30.7617C90.5273-30.7617 92.6514-33.0322 92.6514-35.6934C92.6514-38.4033 90.5518-40.625 87.8418-40.625ZM66.1865-49.0967C72.4121-49.0967 77.4902-54.1748 77.4902-60.4004C77.4902-66.626 72.4121-71.7041 66.1865-71.7041C59.9609-71.7041 54.8828-66.626 54.8828-60.4004C54.8828-54.1748 59.9609-49.0967 66.1865-49.0967ZM66.1865-55.3467C63.3789-55.3467 61.1328-57.6172 61.1328-60.4004C61.1328-63.2812 63.3789-65.4541 66.1865-65.4541C69.043-65.4541 71.2402-63.2812 71.2402-60.4004C71.2402-57.6172 69.043-55.3467 66.1865-55.3467ZM59.0088-65.332L14.5752-65.332C11.8896-65.332 9.76562-63.0615 9.76562-60.4004C9.76562-57.8125 11.9141-55.4688 14.5752-55.4688L59.0088-55.4688ZM87.915-65.332L73.3887-65.332L73.3887-55.4688L87.915-55.4688C90.5273-55.4688 92.6514-57.7637 92.6514-60.4004C92.6514-63.1104 90.5518-65.332 87.915-65.332Z"/>
  </g>
  <g id="Semibold-S" transform="matrix(1 0 0 1 1992.97 696)">
   <path d="M64.6669-0.633496C70.5459-0.633496 75.3396-5.42725 75.3396-11.3063C75.3396-17.152 70.5614-21.9457 64.6669-21.9457C58.7879-21.9457 53.9941-17.152 53.9941-11.3063C53.9941-5.42725 58.7879-0.633496 64.6669-0.633496ZM64.6669-6.51025C61.9926-6.51025 59.8709-8.63193 59.8709-11.3063C59.8709-14.0116 61.9926-16.1022 64.6669-16.1022C67.3723-16.1022 69.4629-14.0116 69.4629-11.3063C69.4629-8.63193 67.3723-6.51025 64.6669-6.51025ZM57.8226-15.7225L14.1042-15.7225C11.6853-15.7225 9.76562-13.7097 9.76562-11.3063C9.76562-8.91611 11.7008-6.89004 14.1042-6.89004L57.8226-6.89004ZM86.5909-15.7225L71.9176-15.7225L71.9176-6.89004L86.5909-6.89004C88.91-6.89004 90.8296-8.88506 90.8296-11.3063C90.8296-13.7407 88.9255-15.7225 86.5909-15.7225ZM36.1657-24.8429C42.0137-24.8429 46.8385-29.6366 46.8385-35.5156C46.8385-41.3613 42.0447-46.1551 36.1657-46.1551C30.2867-46.1551 25.493-41.3613 25.493-35.5156C25.493-29.6366 30.2867-24.8429 36.1657-24.8429ZM36.1657-30.7196C33.4914-30.7196 31.3697-32.8413 31.3697-35.5156C31.3697-38.221 33.4914-40.3116 36.1657-40.3116C38.8711-40.3116 40.9617-38.221 40.9617-35.5156C40.9617-32.8413 38.8711-30.7196 36.1657-30.7196ZM13.971-39.9318C11.6853-39.9318 9.76562-37.919 9.76562-35.5156C9.76562-33.1255 11.7008-31.0994 13.971-31.0994L29.0881-31.0994L29.0881-39.9318ZM86.491-39.9318L42.8726-39.9318L42.8726-31.0994L86.491-31.0994C88.91-31.0994 90.8296-33.0944 90.8296-35.5156C90.8296-37.9501 88.9255-39.9318 86.491-39.9318ZM64.6669-49.0522C70.5459-49.0522 75.3396-53.846 75.3396-59.725C75.3396-65.604 70.5459-70.3978 64.6669-70.3978C58.7879-70.3978 53.9941-65.604 53.9941-59.725C53.9941-53.846 58.7879-49.0522 64.6669-49.0522ZM64.6669-54.929C61.9926-54.929 59.8709-57.084 59.8709-59.725C59.8709-62.4637 61.9926-64.521 64.6669-64.521C67.3723-64.521 69.4629-62.4637 69.4629-59.725C69.4629-57.084 67.3723-54.929 64.6669-54.929ZM58.0224-64.1412L14.1042-64.1412C11.6853-64.1412 9.76562-62.1284 9.76562-59.725C9.76562-57.3682 11.7008-55.3088 14.1042-55.3088L58.0224-55.3088ZM86.5909-64.1412L71.4514-64.1412L71.4514-55.3088L86.5909-55.3088C88.91-55.3088 90.8296-57.3371 90.8296-59.725C90.8296-62.1595 88.9255-64.1412 86.5909-64.1412Z"/>
  </g>
  <g id="Medium-S" transform="matrix(1 0 0 1 1696.95 696)">
   <path d="M63.5146-1.35449C69.1309-1.35449 73.709-5.93262 73.709-11.5488C73.709-17.125 69.1396-21.7031 63.5146-21.7031C57.8984-21.7031 53.3203-17.125 53.3203-11.5488C53.3203-5.93262 57.8984-1.35449 63.5146-1.35449ZM63.5146-6.94824C60.9414-6.94824 58.9141-8.97559 58.9141-11.5488C58.9141-14.1396 60.9414-16.1494 63.5146-16.1494C66.1055-16.1494 68.1152-14.1396 68.1152-11.5488C68.1152-8.97559 66.1055-6.94824 63.5146-6.94824ZM57.0342-15.5742L13.7471-15.5742C11.5303-15.5742 9.76562-13.7568 9.76562-11.5488C9.76562-9.32715 11.5391-7.52344 13.7471-7.52344L57.0342-7.52344ZM85.5869-15.5742L70.543-15.5742L70.543-7.52344L85.5869-7.52344C87.6836-7.52344 89.4482-9.30957 89.4482-11.5488C89.4482-13.7744 87.6924-15.5742 85.5869-15.5742ZM35.876-25.1865C41.4746-25.1865 46.0703-29.7646 46.0703-35.3809C46.0703-40.957 41.4922-45.5352 35.876-45.5352C30.2598-45.5352 25.6816-40.957 25.6816-35.3809C25.6816-29.7646 30.2598-25.1865 35.876-25.1865ZM35.876-30.7803C33.3027-30.7803 31.2754-32.8076 31.2754-35.3809C31.2754-37.9717 33.3027-39.9814 35.876-39.9814C38.4668-39.9814 40.4766-37.9717 40.4766-35.3809C40.4766-32.8076 38.4668-30.7803 35.876-30.7803ZM13.5869-39.4062C11.5303-39.4062 9.76562-37.5889 9.76562-35.3809C9.76562-33.1592 11.5391-31.3555 13.5869-31.3555L28.9668-31.3555L28.9668-39.4062ZM85.4668-39.4062L42.2998-39.4062L42.2998-31.3555L85.4668-31.3555C87.6836-31.3555 89.4482-33.1416 89.4482-35.3809C89.4482-37.6064 87.6924-39.4062 85.4668-39.4062ZM63.5146-49.0186C69.1309-49.0186 73.709-53.5967 73.709-59.2129C73.709-64.8291 69.1309-69.4072 63.5146-69.4072C57.8984-69.4072 53.3203-64.8291 53.3203-59.2129C53.3203-53.5967 57.8984-49.0186 63.5146-49.0186ZM63.5146-54.6123C60.9414-54.6123 58.9141-56.6797 58.9141-59.2129C58.9141-61.8438 60.9414-63.8135 63.5146-63.8135C66.1055-63.8135 68.1152-61.8438 68.1152-59.2129C68.1152-56.6797 66.1055-54.6123 63.5146-54.6123ZM57.2744-63.2383L13.7471-63.2383C11.5303-63.2383 9.76562-61.4209 9.76562-59.2129C9.76562-57.0312 11.5391-55.1875 13.7471-55.1875L57.2744-55.1875ZM85.5869-63.2383L69.9824-63.2383L69.9824-55.1875L85.5869-55.1875C87.6836-55.1875 89.4482-57.0137 89.4482-59.2129C89.4482-61.4385 87.6924-63.2383 85.5869-63.2383Z"/>
  </g>
  <g id="Regular-S" transform="matrix(1 0 0 1 1401.14 696)">
   <path d="M62.0117-2.29492C67.2852-2.29492 71.582-6.5918 71.582-11.8652C71.582-17.0898 67.2852-21.3867 62.0117-21.3867C56.7383-21.3867 52.4414-17.0898 52.4414-11.8652C52.4414-6.5918 56.7383-2.29492 62.0117-2.29492ZM62.0117-7.51953C59.5703-7.51953 57.666-9.42383 57.666-11.8652C57.666-14.3066 59.5703-16.2109 62.0117-16.2109C64.4531-16.2109 66.3574-14.3066 66.3574-11.8652C66.3574-9.42383 64.4531-7.51953 62.0117-7.51953ZM56.0059-15.3809L13.2812-15.3809C11.3281-15.3809 9.76562-13.8184 9.76562-11.8652C9.76562-9.86328 11.3281-8.34961 13.2812-8.34961L56.0059-8.34961ZM84.2773-15.3809L68.75-15.3809L68.75-8.34961L84.2773-8.34961C86.084-8.34961 87.6465-9.86328 87.6465-11.8652C87.6465-13.8184 86.084-15.3809 84.2773-15.3809ZM35.498-25.6348C40.7715-25.6348 45.0684-29.9316 45.0684-35.2051C45.0684-40.4297 40.7715-44.7266 35.498-44.7266C30.2246-44.7266 25.9277-40.4297 25.9277-35.2051C25.9277-29.9316 30.2246-25.6348 35.498-25.6348ZM35.498-30.8594C33.0566-30.8594 31.1523-32.7637 31.1523-35.2051C31.1523-37.6465 33.0566-39.5508 35.498-39.5508C37.9395-39.5508 39.8438-37.6465 39.8438-35.2051C39.8438-32.7637 37.9395-30.8594 35.498-30.8594ZM13.0859-38.7207C11.3281-38.7207 9.76562-37.1582 9.76562-35.2051C9.76562-33.2031 11.3281-31.6895 13.0859-31.6895L28.8086-31.6895L28.8086-38.7207ZM84.1309-38.7207L41.5527-38.7207L41.5527-31.6895L84.1309-31.6895C86.084-31.6895 87.6465-33.2031 87.6465-35.2051C87.6465-37.1582 86.084-38.7207 84.1309-38.7207ZM62.0117-48.9746C67.2852-48.9746 71.582-53.2715 71.582-58.5449C71.582-63.8184 67.2852-68.1152 62.0117-68.1152C56.7383-68.1152 52.4414-63.8184 52.4414-58.5449C52.4414-53.2715 56.7383-48.9746 62.0117-48.9746ZM62.0117-54.1992C59.5703-54.1992 57.666-56.1523 57.666-58.5449C57.666-61.0352 59.5703-62.8906 62.0117-62.8906C64.4531-62.8906 66.3574-61.0352 66.3574-58.5449C66.3574-56.1523 64.4531-54.1992 62.0117-54.1992ZM56.2988-62.0605L13.2812-62.0605C11.3281-62.0605 9.76562-60.498 9.76562-58.5449C9.76562-56.5918 11.3281-55.0293 13.2812-55.0293L56.2988-55.0293ZM84.2773-62.0605L68.0664-62.0605L68.0664-55.0293L84.2773-55.0293C86.084-55.0293 87.6465-56.5918 87.6465-58.5449C87.6465-60.498 86.084-62.0605 84.2773-62.0605Z"/>
  </g>
  <g id="Light-S" transform="matrix(1 0 0 1 1105.16 696)">
   <path d="M62.0117-2.87011C66.9067-2.87011 70.916-6.86426 70.916-11.7744C70.916-16.6357 66.9067-20.645 62.0117-20.645C57.1167-20.645 53.1074-16.6357 53.1074-11.7744C53.1074-6.86426 57.1167-2.87011 62.0117-2.87011ZM62.0117-7.18653C59.4341-7.18653 57.4238-9.21192 57.4238-11.7896C57.4238-14.3672 59.4341-16.3774 62.0117-16.3774C64.5894-16.3774 66.5996-14.3672 66.5996-11.7896C66.5996-9.21192 64.5894-7.18653 62.0117-7.18653ZM55.915-14.5029L12.479-14.5029C10.9648-14.5029 9.76562-13.2886 9.76562-11.7896C9.76562-10.2568 10.9648-9.07617 12.479-9.07617L55.915-9.07617ZM83.5659-14.5029L68.5684-14.5029L68.5684-9.07617L83.5659-9.07617C84.9639-9.07617 86.1782-10.2568 86.1782-11.7896C86.1782-13.2886 84.9639-14.5029 83.5659-14.5029ZM34.6353-26.2402C39.5303-26.2402 43.5396-30.2344 43.5396-35.1445C43.5396-40.0059 39.5303-44.0151 34.6353-44.0151C29.7251-44.0151 25.731-40.0059 25.731-35.1445C25.731-30.2344 29.7251-26.2402 34.6353-26.2402ZM34.6353-30.5566C32.0576-30.5566 30.0322-32.582 30.0322-35.1597C30.0322-37.7373 32.0576-39.7476 34.6353-39.7476C37.2129-39.7476 39.2231-37.7373 39.2231-35.1597C39.2231-32.582 37.2129-30.5566 34.6353-30.5566ZM12.3442-37.8731C10.9648-37.8731 9.76562-36.6587 9.76562-35.1597C9.76562-33.6269 10.9648-32.4463 12.3442-32.4463L28.1426-32.4463L28.1426-37.8731ZM83.4648-37.8731L40.7354-37.8731L40.7354-32.4463L83.4648-32.4463C84.9639-32.4463 86.1782-33.6269 86.1782-35.1597C86.1782-36.6587 84.9639-37.8731 83.4648-37.8731ZM62.0117-49.6558C66.9067-49.6558 70.916-53.665 70.916-58.5601C70.916-63.4551 66.9067-67.4644 62.0117-67.4644C57.1167-67.4644 53.1074-63.4551 53.1074-58.5601C53.1074-53.665 57.1167-49.6558 62.0117-49.6558ZM62.0117-53.9722C59.4341-53.9722 57.4238-56.0313 57.4238-58.5752C57.4238-61.1865 59.4341-63.1631 62.0117-63.1631C64.5894-63.1631 66.5996-61.1865 66.5996-58.5752C66.5996-56.0313 64.5894-53.9722 62.0117-53.9722ZM56.0112-61.2432L12.479-61.2432C10.9648-61.2432 9.76562-60.0288 9.76562-58.5298C9.76562-57.0308 10.9648-55.8164 12.479-55.8164L56.0112-55.8164ZM83.5659-61.2432L68.1875-61.2432L68.1875-55.8164L83.5659-55.8164C84.9639-55.8164 86.1782-57.0308 86.1782-58.5298C86.1782-60.0288 84.9639-61.2432 83.5659-61.2432Z"/>
  </g>
  <g id="Thin-S" transform="matrix(1 0 0 1 809.421 696)">
   <path d="M62.0117-3.63085C66.4063-3.63085 70.0352-7.2246 70.0352-11.6543C70.0352-16.0352 66.4063-19.6641 62.0117-19.6641C57.6172-19.6641 53.9883-16.0352 53.9883-11.6543C53.9883-7.2246 57.6172-3.63085 62.0117-3.63085ZM62.0117-6.7461C59.2539-6.7461 57.1035-8.93164 57.1035-11.6895C57.1035-14.4473 59.2539-16.5977 62.0117-16.5977C64.7695-16.5977 66.9199-14.4473 66.9199-11.6895C66.9199-8.93164 64.7695-6.7461 62.0117-6.7461ZM55.7949-13.3418L11.418-13.3418C10.4844-13.3418 9.76562-12.5879 9.76562-11.6895C9.76562-10.7773 10.4844-10.0371 11.418-10.0371L55.7949-10.0371ZM82.625-13.3418L68.3281-13.3418L68.3281-10.0371L82.625-10.0371C83.4824-10.0371 84.2364-10.7773 84.2364-11.6895C84.2364-12.5879 83.4824-13.3418 82.625-13.3418ZM33.4942-27.041C37.8887-27.041 41.5176-30.6348 41.5176-35.0645C41.5176-39.4453 37.8887-43.0742 33.4942-43.0742C29.0645-43.0742 25.4707-39.4453 25.4707-35.0645C25.4707-30.6348 29.0645-27.041 33.4942-27.041ZM33.4942-30.1563C30.7363-30.1563 28.5508-32.3418 28.5508-35.0996C28.5508-37.8574 30.7363-40.0078 33.4942-40.0078C36.252-40.0078 38.4024-37.8574 38.4024-35.0996C38.4024-32.3418 36.252-30.1563 33.4942-30.1563ZM11.3633-36.752C10.4844-36.752 9.76562-35.9981 9.76562-35.0996C9.76562-34.1875 10.4844-33.4473 11.3633-33.4473L27.2617-33.4473L27.2617-36.752ZM82.584-36.752L39.6543-36.752L39.6543-33.4473L82.584-33.4473C83.4824-33.4473 84.2364-34.1875 84.2364-35.0996C84.2364-35.9981 83.4824-36.752 82.584-36.752ZM62.0117-50.5566C66.4063-50.5566 70.0352-54.1855 70.0352-58.5801C70.0352-62.9746 66.4063-66.6035 62.0117-66.6035C57.6172-66.6035 53.9883-62.9746 53.9883-58.5801C53.9883-54.1855 57.6172-50.5566 62.0117-50.5566ZM62.0117-53.6719C59.2539-53.6719 57.1035-55.8711 57.1035-58.6152C57.1035-61.3867 59.2539-63.5234 62.0117-63.5234C64.7695-63.5234 66.9199-61.3867 66.9199-58.6152C66.9199-55.8711 64.7695-53.6719 62.0117-53.6719ZM55.6309-60.1621L11.418-60.1621C10.4844-60.1621 9.76562-59.4082 9.76562-58.5098C9.76562-57.6113 10.4844-56.8574 11.418-56.8574L55.6309-56.8574ZM82.625-60.1621L68.3477-60.1621L68.3477-56.8574L82.625-56.8574C83.4824-56.8574 84.2364-57.6113 84.2364-58.5098C84.2364-59.4082 83.4824-60.1621 82.625-60.1621Z"/>
  </g>
  <g id="Ultralight-S" transform="matrix(1 0 0 1 513.207 696)">
   <path d="M62.0117-4.02049C66.1499-4.02049 69.584-7.40917 69.584-11.5928C69.584-15.7275 66.1499-19.1616 62.0117-19.1616C57.8735-19.1616 54.4394-15.7275 54.4394-11.5928C54.4394-7.40917 57.8735-4.02049 62.0117-4.02049ZM62.0117-6.52052C59.1616-6.52052 56.9395-8.78809 56.9395-11.6382C56.9395-14.4883 59.1616-16.7104 62.0117-16.7104C64.8618-16.7104 67.084-14.4883 67.084-11.6382C67.084-8.78809 64.8618-6.52052 62.0117-6.52052ZM55.7334-12.7471L10.8745-12.7471C10.2383-12.7471 9.76562-12.229 9.76562-11.6382C9.76562-11.0439 10.2383-10.5293 10.8745-10.5293L55.7334-10.5293ZM82.1431-12.7471L68.2051-12.7471L68.2051-10.5293L82.1431-10.5293C82.7237-10.5293 83.2417-11.0439 83.2417-11.6382C83.2417-12.229 82.7237-12.7471 82.1431-12.7471ZM32.9097-27.4512C37.0479-27.4512 40.482-30.8398 40.482-35.0234C40.482-39.1582 37.0479-42.5923 32.9097-42.5923C28.7261-42.5923 25.3374-39.1582 25.3374-35.0234C25.3374-30.8398 28.7261-27.4512 32.9097-27.4512ZM32.9097-29.9512C30.0596-29.9512 27.792-32.2188 27.792-35.0688C27.792-37.9189 30.0596-40.1411 32.9097-40.1411C35.7598-40.1411 37.9819-37.9189 37.9819-35.0688C37.9819-32.2188 35.7598-29.9512 32.9097-29.9512ZM10.8609-36.1778C10.2383-36.1778 9.76562-35.6597 9.76562-35.0688C9.76562-34.4746 10.2383-33.9599 10.8609-33.9599L26.8106-33.9599L26.8106-36.1778ZM82.1328-36.1778L39.1006-36.1778L39.1006-33.9599L82.1328-33.9599C82.7237-33.9599 83.2417-34.4746 83.2417-35.0688C83.2417-35.6597 82.7237-36.1778 82.1328-36.1778ZM62.0117-51.0181C66.1499-51.0181 69.584-54.4521 69.584-58.5903C69.584-62.7285 66.1499-66.1626 62.0117-66.1626C57.8735-66.1626 54.4394-62.7285 54.4394-58.5903C54.4394-54.4521 57.8735-51.0181 62.0117-51.0181ZM62.0117-53.5181C59.1616-53.5181 56.9395-55.7891 56.9395-58.6357C56.9395-61.4893 59.1616-63.708 62.0117-63.708C64.8618-63.708 67.084-61.4893 67.084-58.6357C67.084-55.7891 64.8618-53.5181 62.0117-53.5181ZM55.436-59.6084L10.8745-59.6084C10.2383-59.6084 9.76562-59.0903 9.76562-58.4995C9.76562-57.9087 10.2383-57.3906 10.8745-57.3906L55.436-57.3906ZM82.1431-59.6084L68.4297-59.6084L68.4297-57.3906L82.1431-57.3906C82.7237-57.3906 83.2417-57.9087 83.2417-58.4995C83.2417-59.0903 82.7237-59.6084 82.1431-59.6084Z"/>
  </g>
 </g>
</svg>
